<svg width="126" height="26" viewBox="0 0 126 26" fill="none" xmlns="http://www.w3.org/2000/svg">
<path d="M89.465 5.45778C89.465 5.29997 89.465 5.14224 89.465 4.98443C89.5628 4.6613 89.5628 4.33813 89.465 4.015C89.4801 3.21843 89.5101 2.4219 89.5026 1.61782C89.5026 1.25711 89.5402 0.978965 89.9762 0.956421C91.7352 1.03908 93.4942 1.0466 95.2532 0.956421C95.7794 0.926362 95.8997 1.18937 95.8997 1.69286C95.8922 4.71381 95.9147 7.7348 95.9298 10.7557C95.9147 11.0188 95.8621 11.2818 95.8846 11.5373C95.9072 11.7928 95.7043 12.2061 96.1177 12.2512C96.5763 12.3113 96.6289 11.9131 96.6289 11.5524C96.877 11.0414 97.0875 10.5227 97.1852 9.95914C97.3355 9.77127 97.4633 9.56846 97.4257 9.30544C97.5384 9.11006 97.6512 8.91461 97.6362 8.67413C97.6512 8.62905 97.6662 8.57649 97.6888 8.5314C97.8767 8.16317 98.0346 7.7874 98.0797 7.36657C98.2526 7.25384 98.2901 7.09595 98.2526 6.90808C98.433 6.73524 98.4631 6.50992 98.4781 6.27696C98.6134 6.20181 98.6434 6.08913 98.6134 5.94635C98.6284 5.8712 98.6435 5.79602 98.6585 5.72087C98.8013 5.61566 98.8539 5.48036 98.8239 5.30752C98.9742 5.05953 99.0945 4.80398 99.0945 4.50338C99.3876 4.01492 99.568 3.489 99.6507 2.92539C99.8913 2.50456 100.057 2.05363 100.132 1.57269C100.162 1.48251 100.2 1.38473 100.23 1.29455C100.335 1.18934 100.433 1.09172 100.538 0.98651C102.507 1.02408 104.484 1.06164 106.454 0.963943C106.672 1.03158 106.927 0.956406 107.123 1.12925C107.115 1.36972 107.093 1.61016 107.093 1.84312C107.093 9.31283 107.093 16.7901 107.1 24.2598C107.1 24.7408 107.13 25.2141 107.138 25.6951C106.905 25.9506 106.597 25.8829 106.311 25.8829C104.747 25.8905 103.176 25.8529 101.613 25.898C100.921 25.9205 100.703 25.7327 100.711 25.0113C100.756 22.0505 100.726 19.0896 100.726 16.1363C100.726 15.8432 100.696 15.5502 100.681 15.2646C100.756 15.0091 100.861 14.6784 100.515 14.6183C100.087 14.5431 100.049 14.9264 100.034 15.2496C99.8236 15.6103 99.6884 15.9936 99.6358 16.4069C99.3201 16.8878 99.1697 17.4215 99.072 17.9851C98.8841 18.2781 98.7863 18.6011 98.7261 18.9393C98.5081 19.2549 98.4104 19.6157 98.3653 19.9915L98.3578 20.0216C98.3277 20.0967 98.3052 20.1719 98.2751 20.2395C98.1624 20.5551 98.0497 20.8706 97.9369 21.1937C97.7941 21.3215 97.7714 21.4944 97.7639 21.6672C97.6211 21.8025 97.6286 21.9828 97.6061 22.1556C97.4708 22.2308 97.4483 22.3512 97.4784 22.4864C97.1626 23.268 96.8168 24.0495 96.6664 24.8911C96.4635 25.0414 96.4335 25.2669 96.4259 25.4999C96.2681 25.6727 96.1778 25.9281 95.8846 25.9356C95.7719 25.8755 95.6592 25.8755 95.5539 25.9431C93.7498 25.868 91.9382 25.853 90.1341 25.9506C89.9762 25.8605 89.8108 25.8755 89.6454 25.913C89.4049 25.6124 89.5703 25.2293 89.4575 24.9062C89.5477 24.2073 89.5552 23.5084 89.4575 22.8095C89.4575 22.7043 89.4575 22.5992 89.4575 22.4939C89.5477 22.2234 89.5477 21.9528 89.4575 21.6823C89.4575 21.5771 89.4575 21.4719 89.4575 21.3667C89.4575 21.3141 89.4575 21.2538 89.4575 21.2012C89.4726 17.8196 89.4951 14.4454 89.5026 11.0638C89.5026 9.57586 89.4726 8.08797 89.4575 6.60004C89.5703 6.20927 89.5628 5.83352 89.465 5.45778ZM104.266 13.416H104.274C104.274 10.7934 104.274 8.17072 104.274 5.55557C104.274 3.81213 104.274 3.8196 102.53 3.8196C102.131 3.8196 101.838 3.84206 101.65 4.29295C99.2674 9.93656 96.8695 15.5651 94.4715 21.2012C94.3136 21.5695 94.2836 22.1933 93.7123 22.058C93.2086 21.9378 93.4641 21.3741 93.4641 21.0209C93.4491 15.5351 93.4416 10.0569 93.4641 4.57108C93.4641 3.96238 93.2987 3.73695 92.7049 3.83465C92.1561 3.92482 92.3516 4.36057 92.3516 4.66117C92.3441 10.2747 92.3366 15.8959 92.3516 21.5095C92.3516 23.2529 92.081 23.0499 93.9377 23.0649C94.4489 23.0724 94.8172 23.0199 95.0578 22.4413C97.0498 17.6619 99.087 12.905 101.109 8.14061C101.5 7.20878 101.906 6.28449 102.304 5.36017C102.432 5.07461 102.522 4.72145 102.966 4.83417C103.349 4.93187 103.191 5.26244 103.214 5.50291C103.244 5.76593 103.221 6.03651 103.221 6.30705C103.221 11.605 103.221 16.8953 103.229 22.1932C103.229 22.5389 103.018 23.0425 103.71 23.0576C104.447 23.0801 104.251 22.5464 104.259 22.1707C104.266 19.2474 104.266 16.3318 104.266 13.416Z" fill="#EDE20F"/>
<path d="M118.737 20.2243C118.812 19.2624 118.812 18.3004 118.737 17.3385C118.947 16.6772 118.752 16.3391 118.015 16.4142C117.737 16.4443 117.451 16.4594 117.173 16.4744C117.061 16.4744 116.948 16.4819 116.828 16.4819C116.369 16.3843 116.196 16.5495 116.346 17.0079C116.264 17.4363 116.264 17.8646 116.354 18.2929C116.241 20.2167 116.234 22.148 116.354 24.0718C116.279 24.2822 116.279 24.5002 116.354 24.7106C116.204 25.8453 116.204 25.8454 114.978 25.8454C113.49 25.8454 111.994 25.8003 110.513 25.8679C109.746 25.9055 109.604 25.6274 109.604 24.921C109.626 17.2334 109.619 9.53811 109.626 1.85047C109.626 1.55739 109.671 1.26438 109.694 0.978819C109.889 0.971304 110.092 0.963767 110.288 0.956253C112.047 0.971282 113.813 1.00138 115.572 0.993863C116.038 0.993863 116.324 1.0916 116.346 1.60261C116.271 1.82054 116.271 2.03836 116.354 2.24878C116.189 4.72866 116.316 7.20865 116.286 9.68101C116.286 10.0042 116.444 10.1394 116.767 10.1844C118.669 10.4475 118.82 10.3271 118.79 8.41087C118.79 8.23052 118.752 8.04266 118.729 7.86231C118.812 6.52467 118.812 5.18716 118.729 3.85705C118.827 3.10557 118.835 2.35409 118.714 1.60261C118.714 1.4974 118.714 1.39207 118.722 1.28686C118.767 1.19668 118.805 1.09909 118.85 1.00891L118.91 0.986341C120.887 0.986341 122.856 1.06897 124.833 0.94873C125.021 0.96376 125.217 0.978834 125.405 0.993863C125.427 1.42221 125.465 1.843 125.465 2.27134C125.465 10.1243 125.457 17.9849 125.45 25.8378C125.299 25.8679 125.149 25.8903 124.999 25.9204C124.706 25.8978 124.42 25.8679 124.127 25.8604C122.345 25.8454 120.556 25.8303 118.775 25.8153L118.782 25.8228C118.775 25.0788 118.857 24.3349 118.729 23.5909C118.812 22.8469 118.805 22.0955 118.729 21.3515C118.835 20.9758 118.835 20.6 118.737 20.2243ZM121.661 22.3132C121.586 22.7115 121.541 23.0649 122.135 23.0574C122.713 23.0499 122.721 22.7341 122.616 22.3208C122.631 18.5108 122.653 14.7008 122.653 10.8908C122.653 8.65138 122.623 6.41203 122.608 4.18013C122.556 3.59398 122.105 3.8721 121.857 3.88713C121.458 3.91719 121.639 4.26274 121.661 4.50322C121.654 7.0357 121.646 9.56075 121.624 12.0932C121.624 12.3788 121.796 12.7621 121.33 12.8823C119.015 12.8673 116.7 12.8147 114.377 12.8598C113.61 12.8748 113.445 12.6193 113.467 11.9129C113.52 10.47 113.482 9.02719 113.482 7.57683C113.482 6.47967 113.467 5.38242 113.49 4.28526C113.505 3.73668 113.137 3.86457 112.836 3.86457C112.588 3.85705 112.377 3.80446 112.385 4.25535C112.415 10.2747 112.4 16.2939 112.415 22.3132C112.415 22.6439 112.242 23.0798 112.896 23.0873C113.52 23.0948 113.497 22.7341 113.497 22.3132C113.49 19.8259 113.482 17.3385 113.497 14.8511C113.505 13.6412 113.355 13.8066 114.565 13.7841C116.828 13.739 119.09 13.8892 121.345 13.7013C121.781 13.8892 121.631 14.2876 121.631 14.6032C121.646 17.1658 121.646 19.7357 121.661 22.3132Z" fill="#EDE20F"/>
<path d="M45.9933 16.9178C43.3323 16.9027 40.6787 16.8952 38.0176 16.8802C37.7019 16.8802 37.3787 16.8578 37.0629 16.8503C37.0629 11.8304 37.0705 6.81045 37.048 1.79057C37.048 1.15181 37.2359 0.986441 37.8598 0.993956C39.7165 1.02401 41.5808 0.978897 43.4376 0.963867C43.8736 1.10665 43.7457 1.46741 43.7457 1.768C43.7607 4.60108 43.7758 7.4342 43.7909 10.2673C43.7909 10.5002 43.9487 10.4326 44.0765 10.4175C44.7155 10.4175 45.3544 10.41 45.9933 10.41C46.4669 10.3274 46.249 9.95168 46.249 9.71872C46.2715 7.36659 46.2565 5.01434 46.264 2.6547C46.264 2.0986 46.1738 1.53501 46.3467 0.978911C48.5041 0.978911 50.6691 0.978911 52.8265 0.978911C52.849 1.24193 52.9016 1.50498 52.9016 1.768C52.9092 9.36546 52.9092 16.963 52.9092 24.5604C52.9092 24.9888 52.8866 25.4171 52.8715 25.8454C47.7599 25.853 42.6408 25.8605 37.5216 25.8755C37.266 25.8755 37.0329 25.8679 36.9878 25.5447C37.0028 23.8389 37.0254 22.1405 37.0405 20.4346C37.048 20.0965 36.9803 19.7359 37.281 19.4654C39.8594 19.5631 42.4302 19.5405 45.0086 19.4729C45.3018 19.6232 45.6175 19.5554 45.9182 19.5329C46.2264 19.5104 46.2038 19.3076 46.0986 19.0896C46.1061 18.9844 46.1136 18.8791 46.1136 18.7664C46.2715 18.1427 46.512 17.5039 45.9933 16.9178ZM50.1353 13.491C50.1353 10.5226 50.1278 7.5544 50.1353 4.58605C50.1353 4.17274 50.1955 3.80449 49.549 3.81201C48.9101 3.82703 49.0604 4.23285 49.0604 4.57853C49.0529 7.14859 49.0303 9.71114 49.0679 12.2812C49.0754 12.965 48.8725 13.1303 48.2185 13.1152C46.0385 13.0701 43.851 13.0777 41.6635 13.1077C41.0697 13.1152 40.8968 12.9426 40.9043 12.3339C40.9419 9.74125 40.9193 7.14857 40.9193 4.55596C40.9193 4.18022 40.9945 3.82704 40.3856 3.81953C39.7616 3.81201 39.8594 4.18773 39.8594 4.54844C39.8594 7.46418 39.8744 10.3798 39.8443 13.2956C39.8368 13.9343 40.0398 14.0997 40.6637 14.0922C43.2195 14.0546 45.7754 14.0922 48.3312 14.0696C48.865 14.0621 49.0679 14.19 49.0529 14.7762C49.0153 16.9705 49.0153 19.1648 49.0529 21.3516C49.0604 21.9453 48.9025 22.133 48.2936 22.1255C45.7077 22.0954 43.1293 22.1106 40.5434 22.1181C40.2126 22.1181 39.8368 22.0128 39.8443 22.5915C39.8519 23.1476 40.2051 23.0723 40.5509 23.0723C43.4525 23.0723 46.3542 23.0498 49.2634 23.0949C49.9399 23.1024 50.1353 22.9071 50.1278 22.2458C50.1278 19.3151 50.1353 16.3992 50.1353 13.491Z" fill="#EDE20F"/>
<path d="M24.7802 25.8604C22.4047 25.8604 20.0369 25.8604 17.6614 25.8604C17.6539 25.7477 17.6389 25.6348 17.6313 25.5221C17.6464 25.4169 17.6615 25.3117 17.6765 25.2065C17.684 25.1539 17.6916 25.1013 17.6991 25.0412C17.902 24.7932 17.917 24.4925 17.9245 24.1919C18.1651 23.8688 18.2253 23.4931 18.2553 23.1099C18.2779 23.0047 18.3004 22.8995 18.323 22.7868C18.4432 22.7116 18.4658 22.599 18.4357 22.4637C18.5034 22.2007 18.5711 21.9301 18.6312 21.6671C18.6387 21.6145 18.6537 21.5619 18.6612 21.5093C18.6762 21.4341 18.6913 21.359 18.6988 21.2838C19.2776 19.7358 19.6309 18.1275 20.0143 16.5194C20.0369 16.4142 20.0519 16.309 20.0744 16.2038C20.2172 16.0159 20.2924 15.8054 20.2473 15.565C20.2623 15.4898 20.2774 15.4148 20.2849 15.3397C20.4804 15.1819 20.4954 14.9789 20.4428 14.7535C20.4728 14.6483 20.5104 14.543 20.5405 14.4378C20.6683 14.3626 20.6758 14.2424 20.6382 14.1147C20.6608 14.0095 20.6759 13.9043 20.6984 13.7916C20.954 13.476 20.969 13.1603 20.7059 12.8372C20.6834 12.732 20.6683 12.6268 20.6457 12.5216C20.6758 12.3338 20.6608 12.1683 20.4879 12.0556C20.4654 11.9429 20.4428 11.8302 20.4203 11.725C20.4954 11.5447 20.4428 11.4093 20.2924 11.2966C20.2549 11.1163 20.2248 10.9359 20.1872 10.7556C20.0369 10.0492 19.9241 9.32774 19.6008 8.65892C19.5482 8.44851 19.4956 8.23069 19.443 8.02027C19.4505 7.99773 19.4581 7.98265 19.4581 7.96762C19.4505 7.93004 19.4355 7.89988 19.4204 7.86231C19.3603 7.65189 19.3002 7.43407 19.24 7.22366C19.1874 6.7878 19.1423 6.35183 18.8792 5.97609C18.8642 5.90845 18.8566 5.83347 18.8416 5.76583C18.8867 5.52536 18.8191 5.30736 18.6612 5.127C18.6462 5.02179 18.6312 4.92417 18.6161 4.81896C18.6537 4.67618 18.6086 4.57083 18.4883 4.48817C18.4733 4.38296 18.4583 4.27782 18.4433 4.17261C18.4207 3.82693 18.3455 3.50376 18.1651 3.20317C18.1125 2.865 18.0974 2.51176 17.8944 2.21869C17.8343 1.81289 17.7742 1.41471 17.7065 1.00891C17.8042 0.986363 17.902 0.971275 17.9997 0.94873C20.1872 1.03891 22.3672 1.0314 24.5547 0.956253C24.6524 0.971282 24.7576 0.986363 24.8553 1.00891C25.1635 2.3766 25.2613 3.78938 25.6522 5.14205C25.6672 5.29986 25.6822 5.45758 25.6972 5.61539C25.9303 7.00563 26.1633 8.3959 26.3964 9.78614C26.4415 10.0341 26.5016 10.2596 26.8323 10.2296C27.0879 10.207 27.2082 10.0943 27.2533 9.84632C27.5691 7.89998 27.8848 5.96116 28.208 4.01483C28.2682 3.63909 28.3283 3.27087 28.396 2.89513C28.5538 2.48182 28.6515 2.05349 28.6365 1.60261C28.659 1.1442 28.9071 0.948738 29.3507 0.956253C31.0721 0.971282 32.7935 0.993878 34.5149 1.00891C35.8906 1.01642 35.8905 1.01644 35.68 2.34656C35.6725 2.36911 35.6951 2.39906 35.7026 2.4216C35.6801 2.52681 35.65 2.63214 35.6275 2.73735C35.4997 2.8125 35.4696 2.91764 35.5072 3.05291C35.4921 3.15812 35.4771 3.26327 35.4621 3.376C35.4245 3.41357 35.3719 3.45126 35.3644 3.49635C34.53 6.63002 33.6955 9.76371 32.8762 12.9049C32.7709 13.3182 32.7484 13.7464 33.049 14.1147C33.0641 14.2199 33.0867 14.325 33.1017 14.4302C33.1694 14.9337 33.2746 15.4298 33.5151 15.8807C33.5452 15.9859 33.5677 16.0911 33.5978 16.1963C33.5452 16.3316 33.5978 16.4292 33.688 16.5194C33.703 16.6246 33.7181 16.7299 33.7407 16.8351C33.9135 17.7143 34.124 18.5785 34.4773 19.4126C34.4924 19.5178 34.5149 19.623 34.5299 19.7282C34.6201 20.2768 34.7179 20.8255 34.981 21.3289C35.0111 21.4342 35.0487 21.5393 35.0787 21.6445C35.0411 21.9451 35.1087 22.2157 35.2891 22.4562C35.3042 22.5614 35.3193 22.6665 35.3343 22.7717C35.4019 23.1024 35.402 23.4556 35.635 23.7336C35.6575 23.8389 35.6876 23.9515 35.7101 24.0567C35.65 24.2371 35.6875 24.3875 35.8454 24.5077C35.868 24.6279 35.8981 24.7482 35.9206 24.8684C35.8755 25.1089 35.9657 25.3117 36.0935 25.507C36.071 25.9053 35.7778 25.8604 35.5147 25.8604C33.4926 25.8604 31.463 25.8604 29.4409 25.8604C29.1627 25.8604 28.8996 25.8753 28.8244 25.5146C28.8695 25.3793 28.8394 25.2666 28.7116 25.1915C28.6966 25.0337 28.6741 24.8759 28.659 24.7106C28.7042 24.5303 28.7041 24.3573 28.5387 24.2296C28.5087 24.0717 28.4786 23.9065 28.4561 23.7487C28.5388 23.4706 28.5163 23.2076 28.3133 22.9822C28.2907 22.8018 28.2681 22.629 28.2456 22.4486C28.208 21.8475 28.1479 21.2537 27.9073 20.6901C27.8923 20.5849 27.8847 20.4722 27.8697 20.367C27.9148 20.1341 27.9224 19.9086 27.7345 19.7282C27.7044 19.5704 27.6818 19.4051 27.6518 19.2473C27.7194 19.1271 27.7043 19.0144 27.5991 18.9167C27.554 18.6462 27.5014 18.3756 27.4563 18.1126C27.5089 17.8195 27.4487 17.5564 27.2909 17.3085C27.2758 17.1506 27.2609 16.9929 27.2458 16.8351C27.2984 16.4368 27.0053 16.4592 26.7798 16.4968C26.3062 16.5795 26.3964 16.9778 26.3813 17.3085C26.3513 17.5414 26.3212 17.7818 26.2911 18.0148C26.1107 18.1801 26.0732 18.3755 26.1559 18.601C26.1333 18.7663 26.1107 18.9318 26.0881 19.0971C25.8852 19.33 25.8852 19.6079 25.9303 19.886C25.9228 19.9912 25.9077 20.104 25.9002 20.2093C25.7799 20.3445 25.7199 20.5022 25.7574 20.6901C25.7424 20.8479 25.7273 21.0058 25.7123 21.1712C25.592 21.3139 25.5395 21.4717 25.5921 21.6596C25.547 21.9902 25.5018 22.3209 25.4567 22.6516C25.2914 22.8319 25.2613 23.0347 25.3364 23.2676C25.3214 23.3804 25.2989 23.4857 25.2839 23.5984C25.1034 23.7788 25.1034 24.0041 25.141 24.2296C25.1259 24.3348 25.1185 24.4476 25.1034 24.5528C24.9606 24.7407 24.8929 24.951 24.9455 25.1915C24.938 25.2967 24.923 25.4018 24.9155 25.5146C24.8629 25.6423 24.8253 25.7477 24.7802 25.8604ZM22.0139 23.0647C22.5476 23.1474 22.6002 22.7417 22.6979 22.3809C23.2166 20.4496 23.7353 18.5184 24.2691 16.5871C24.5171 15.6928 24.5322 14.513 25.1185 13.9945C25.7575 13.4309 26.9602 13.8968 27.8998 13.8066C28.5538 13.7465 28.7567 14.0319 28.9071 14.6106C29.6062 17.2708 30.3654 19.9086 31.057 22.5688C31.2073 23.155 31.5832 23.1175 31.9591 23.0574C32.5154 22.9747 32.1996 22.5763 32.132 22.3132C31.4178 19.6004 30.7037 16.8952 29.967 14.1899C29.8167 13.6263 29.8167 13.1076 29.9746 12.544C30.7112 9.83868 31.4103 7.1335 32.1169 4.42066C32.162 4.2403 32.4026 3.9773 32.1019 3.87961C31.8162 3.78192 31.4103 3.71415 31.1848 3.93208C30.9969 4.11244 30.9593 4.45818 30.8841 4.74374C30.2076 7.23865 29.5311 9.74107 28.8846 12.2435C28.7643 12.7169 28.5763 12.9049 28.0802 12.8823C27.2308 12.8448 26.3738 12.8523 25.5244 12.8748C25.126 12.8823 24.9531 12.7995 24.8328 12.3561C24.1413 9.6959 23.382 7.05833 22.6979 4.39809C22.54 3.7969 22.1643 3.77438 21.7433 3.85705C21.187 3.96225 21.5328 4.37557 21.5929 4.61605C22.292 7.29883 23.0061 9.98158 23.7353 12.6568C23.8706 13.1378 23.8781 13.5811 23.7428 14.0695C22.9911 16.7974 22.2695 19.5254 21.5478 22.2608C21.4652 22.614 21.1945 23.1474 22.0139 23.0647Z" fill="#EDE20F"/>
<path d="M72.0705 12.3635C72.0705 9.53039 72.0705 6.68993 72.0705 3.85685C72.1457 3.63892 72.1457 3.42842 72.0705 3.21049C72.2284 2.47404 71.9277 1.70003 72.2283 0.971099C72.6042 0.963584 72.9725 0.963569 73.3484 0.956055C75.3179 0.956055 77.2949 0.956055 79.2644 0.956055C79.4223 1.02369 79.5876 1.02369 79.7455 0.956055C81.1813 0.956055 82.6246 0.956055 84.0603 0.956055C85.3383 1.04623 86.6162 1.03872 87.9016 0.956055C87.9392 0.993629 87.9768 1.00117 88.0294 0.978621C88.1196 3.0001 88.1497 5.01411 88.0068 7.03559L87.9467 7.02055L87.8942 7.05064C86.293 6.983 84.6994 6.97549 83.0982 7.05064C82.4066 7.05064 81.7075 7.05064 81.0159 7.05064C78.415 6.99052 78.8209 6.61464 78.8961 8.97429C78.8961 9.13961 78.8961 9.30505 78.8961 9.47038C78.7081 10.1016 78.9337 10.3194 79.5952 10.3044C80.8957 10.2593 82.2036 10.2969 83.5116 10.2969C83.5567 10.4998 83.5943 10.7027 83.6394 10.9056C83.5342 11.2288 83.5342 11.5519 83.6394 11.8826C83.5567 12.9497 83.5567 14.0168 83.6394 15.0839C83.6169 15.1891 83.5642 15.2943 83.5792 15.392C83.707 16.1885 83.3463 16.3914 82.6021 16.3463C81.6248 16.2862 80.64 16.3689 79.6553 16.3163C78.9712 16.2787 78.7683 16.5493 78.8134 17.1881C78.8585 17.8268 78.8585 18.4656 78.8209 19.1044C78.7833 19.7056 78.9638 19.9159 79.6178 19.9084C82.4292 19.8708 85.2406 19.9008 88.0595 19.9008L88.067 19.9084C88.067 21.8923 88.067 23.8688 88.067 25.8527C82.9403 25.8602 77.8136 25.8676 72.6869 25.8901C72.2358 25.8901 72.0781 25.7249 72.0931 25.2815C72.1156 24.6202 72.078 23.9513 72.063 23.2825C72.1457 22.7489 72.1457 22.2155 72.063 21.6744C72.1306 18.8413 72.1306 16.0007 72.063 13.1676C72.1532 12.8971 72.1532 12.6265 72.0705 12.3635ZM76.0621 4.81124C76.3552 4.80373 76.6484 4.78867 76.9416 4.78867C79.52 4.78867 82.0984 4.78116 84.6693 4.78867C85.0226 4.78867 85.2856 4.78105 85.2932 4.3001C85.2932 3.8943 85.1278 3.77415 84.767 3.81924C84.5866 3.84178 84.3987 3.84934 84.2107 3.86437C84.0529 3.86437 83.895 3.86437 83.7372 3.86437C81.8203 3.79674 79.8959 3.79674 77.979 3.86437C77.0769 3.86437 76.1674 3.86437 75.2653 3.86437C75.1375 3.84183 74.9872 3.78918 75.0097 4.01463C74.9872 4.2025 74.9496 4.38285 74.9496 4.57072C74.9496 10.3872 74.9496 16.2036 74.9571 22.0201C74.9571 22.2831 75.0172 22.5461 75.0473 22.8016C75.1149 23.1698 75.4156 23.0497 75.6186 23.0497C78.6405 23.0572 81.67 23.0572 84.6918 23.0421C84.8873 23.0421 85.2105 23.1924 85.1954 22.7715C85.203 22.6738 85.203 22.5762 85.203 22.4785C85.3007 22.2681 85.3007 22.1177 85.0075 22.1477C82.0382 22.1402 79.0765 22.1327 76.1072 22.1252C76.0696 21.5991 76.0245 21.0657 75.9869 20.5397C75.9869 19.6379 75.9869 18.7285 75.9869 17.8267C76.002 16.7296 76.0471 15.64 76.0245 14.5429C76.017 13.9943 76.1749 13.7914 76.7386 13.8064C77.8812 13.844 79.0314 13.814 80.174 13.814C80.3845 13.814 80.6626 13.8816 80.7152 13.6186C80.7679 13.3781 80.9558 13.0324 80.5198 12.9047C79.2344 12.8897 77.9414 12.8821 76.6484 12.8671C76.3778 12.8671 76.0395 12.9723 75.9794 12.529C76.0245 9.95889 76.0395 7.38882 76.0621 4.81124Z" fill="#EDE20F"/>
<path d="M16.7667 17.1809C16.7667 19.8035 16.7667 22.4262 16.7667 25.0413C16.7667 25.1465 16.7667 25.2592 16.7667 25.3644C16.7592 25.4696 16.7593 25.5825 16.7517 25.6877C16.6991 25.7553 16.654 25.8303 16.6013 25.8979C11.4897 25.8904 6.38552 25.8678 1.27385 25.8904C0.574754 25.8904 0.371828 25.7176 0.371828 25.0037C0.394379 17.4438 0.379345 9.88398 0.371828 2.32409C0.371828 1.97841 0.326751 1.63264 0.304199 1.29447C0.537231 0.941279 0.898047 1.009 1.23632 1.009C5.20538 1.009 9.17442 1.009 13.151 1.009C14.1884 1.009 15.2257 0.978897 16.2631 0.963867C16.3984 0.978897 16.5262 0.99397 16.6615 1.009C16.6916 2.60214 16.7292 4.19518 16.7593 5.79583C16.7593 7.18607 16.7593 8.57634 16.7593 9.96658C16.7517 10.0718 16.7517 10.1845 16.7442 10.2897C16.5788 10.4926 16.4134 10.703 16.2556 10.9059C16.015 10.9961 15.8722 11.1841 15.7594 11.3945C15.5565 11.4997 15.3911 11.6424 15.3009 11.8603C15.1957 11.8754 15.128 11.9279 15.113 12.0331C14.9626 12.0858 14.8724 12.1986 14.8198 12.3414C14.4665 12.7021 13.8275 12.8447 13.8877 13.5361C13.9779 13.6338 14.0681 13.7241 14.1658 13.8218C14.3011 14.1299 14.5266 14.3402 14.8198 14.4905C15.3084 15.0165 15.7896 15.5426 16.2932 16.0536C16.5638 16.3317 16.7667 16.6248 16.7742 17.0231C16.7667 17.0682 16.7667 17.1283 16.7667 17.1809ZM3.19829 13.3858C3.2058 13.3858 3.2058 13.3858 3.19829 13.3858C3.2058 16.3542 3.21332 19.3226 3.19829 22.2834C3.19829 22.8546 3.3336 23.0874 3.95753 23.0799C7.01701 23.0498 10.084 23.0498 13.1435 23.0723C13.7148 23.0799 13.9403 22.9521 13.9253 22.3284C13.8802 20.7503 13.8952 19.1723 13.9253 17.5942C13.9328 17.1208 13.7674 16.7977 13.4366 16.482C12.5571 15.6253 11.7303 14.7159 10.8433 13.8742C10.4524 13.4985 10.4899 13.2582 10.8582 12.905C11.7528 12.0633 12.6022 11.1764 13.4817 10.3273C13.7674 10.0492 13.9178 9.76363 13.9102 9.35032C13.8877 7.7196 13.8802 6.08907 13.9178 4.45836C13.9328 3.89475 13.7072 3.812 13.2261 3.812C10.1366 3.82703 7.04708 3.84206 3.95753 3.80448C3.27347 3.79697 3.18324 4.05255 3.18324 4.63871C3.21331 7.56196 3.19829 10.4701 3.19829 13.3858Z" fill="#EDE20F"/>
<path d="M58.6372 7.3664C57.2541 7.35888 55.8709 7.35134 54.4952 7.33631C54.4952 7.23862 54.4351 7.20862 54.3449 7.20862C54.3449 5.39755 54.3449 3.59402 54.3599 1.78295C54.3599 1.48988 54.2321 1.12157 54.638 0.94873C54.9011 0.96376 55.1643 0.993863 55.4274 0.993863C60.4939 0.993863 65.5605 0.993863 70.627 0.993863C70.6646 1.13664 70.7097 1.27948 70.7473 1.42226C70.582 3.12812 70.6872 4.83384 70.6872 6.5397C70.6872 7.15591 70.4993 7.31372 69.9205 7.29118C68.8605 7.24609 67.7856 7.3289 66.7257 7.26127C65.9815 7.21618 65.8461 7.50172 65.8537 8.17805C65.8762 13.7916 65.8612 19.4051 65.8612 25.0187C65.8612 25.3268 65.9514 25.6724 65.6657 25.9204C65.5079 25.9204 65.35 25.9204 65.1997 25.9204C63.4858 25.7701 61.7643 25.898 60.0429 25.8529C59.7347 25.8454 59.404 25.9205 59.1409 25.6725C59.1484 20.9307 59.1634 16.1887 59.1709 11.4469C59.1709 10.3572 59.1409 9.2677 59.1258 8.17805C59.1935 7.77225 59.434 7.26119 58.6372 7.3664ZM60.3962 3.87209C59.9151 3.87209 59.434 3.87209 58.9604 3.87209C58.8025 3.87209 58.6372 3.87209 58.4794 3.87209C58.3741 3.87209 58.2689 3.87209 58.1636 3.87209C58.111 3.87209 58.0584 3.87209 57.9983 3.87209C57.8404 3.87209 57.6825 3.87209 57.5247 3.87209C57.0436 3.79694 57.1863 4.16512 57.1788 4.39057C57.1638 4.69867 57.3592 4.79639 57.6449 4.78887C58.359 4.78136 59.0807 4.75882 59.7949 4.7964C60.5541 4.83397 61.3283 4.62352 62.0725 4.94665C62.0725 5.06689 62.08 5.19464 62.08 5.31487C61.9522 5.40505 61.9522 5.49531 62.08 5.58549C62.065 5.87856 62.035 6.17158 62.035 6.46466C62.035 11.0863 62.0275 15.7078 62.035 20.3369C62.035 20.893 62.065 21.4566 62.0876 22.0127C61.9598 22.1029 61.9598 22.1932 62.0876 22.2833C62.0274 22.4487 62.0199 22.6139 62.1101 22.7793C62.4258 23.1775 62.719 23.1775 63.0347 22.7793C63.0498 19.2398 63.0648 15.6929 63.0799 12.1534C63.0949 9.70359 63.1024 7.25374 63.1174 4.80392C63.4406 4.78137 63.7639 4.75124 64.0871 4.7287C64.3502 4.79633 64.6059 4.79633 64.869 4.7287C65.7485 4.87148 66.6429 4.7513 67.5224 4.78887C67.7254 4.79639 67.8983 4.7587 67.8382 4.48065C67.8382 4.32284 67.8382 4.17264 67.8382 4.01483C67.8532 3.80441 67.7255 3.83451 67.5902 3.86457C67.5375 3.86457 67.4849 3.86457 67.4322 3.86457C67.3796 3.86457 67.327 3.86457 67.2669 3.87209C65.8311 3.87209 64.3878 3.86457 62.952 3.86457C62.7416 3.86457 62.5236 3.86457 62.3131 3.86457C61.832 3.86457 61.3509 3.86457 60.8773 3.86457C60.7194 3.87208 60.5541 3.87209 60.3962 3.87209Z" fill="#EDE20F"/>
<path d="M8.55054 22.0955C7.35531 22.0955 6.15254 22.0729 4.95731 22.1105C4.41608 22.1255 4.28828 21.9526 4.2958 21.4266C4.31835 19.127 4.31083 16.8276 4.2958 14.528C4.28828 14.0696 4.38605 13.8441 4.90473 13.8591C6.26534 13.8892 7.62589 13.8741 8.97897 13.8591C9.33228 13.8516 9.5729 14.0094 9.80593 14.2574C10.6704 15.1667 11.5499 16.061 12.4294 16.9478C12.7301 17.2559 12.8654 17.5865 12.8579 18.0223C12.8353 19.1721 12.8127 20.3219 12.8503 21.4717C12.8654 21.9752 12.7075 22.1256 12.2264 22.118C11.0011 22.0805 9.77583 22.0955 8.55054 22.0955ZM7.10721 17.9548C7.09969 19.8936 7.09974 19.8935 9.03917 19.886C9.17448 19.886 9.30972 19.871 9.43751 19.886C9.91109 19.9461 9.96375 19.6907 10.0389 19.2849C10.3321 17.8346 9.45254 17.0004 8.49786 16.2113C8.14456 15.9183 7.65603 16.0083 7.27266 16.1211C6.95694 16.2112 7.13728 16.6396 7.11473 16.9102C7.09218 17.2634 7.10721 17.6091 7.10721 17.9548Z" fill="#EDE20F"/>
<path d="M4.30345 8.83165C4.30345 7.68188 4.31848 6.53223 4.29593 5.38247C4.28841 4.92407 4.4463 4.78125 4.88981 4.78125C7.34041 4.79628 9.79101 4.79628 12.2341 4.78125C12.7302 4.78125 12.9031 4.97655 12.858 5.44999C12.8429 5.6078 12.858 5.77323 12.8505 5.93104C12.7978 7.10334 13.2564 8.4484 12.6926 9.40278C11.9484 10.6502 10.693 11.5972 9.67071 12.6793C9.48278 12.8747 9.26479 12.9048 9.01672 12.9048C7.65612 12.8973 6.303 12.8821 4.94239 12.9197C4.37109 12.9347 4.28089 12.6867 4.29593 12.2058C4.31848 11.0786 4.30345 9.95135 4.30345 8.83165ZM7.10734 8.83165C7.10734 9.20739 7.08479 9.5756 7.11486 9.95134C7.1299 10.2219 6.95699 10.6202 7.29527 10.7329C7.65609 10.8531 8.0996 10.9058 8.42284 10.5827C8.91897 10.1017 9.46023 9.65082 9.85112 9.08721C10.2345 8.54615 10.0992 7.82475 9.95637 7.23108C9.84361 6.77268 9.26477 7.02065 8.89642 7.02065C7.11486 6.9981 7.10734 7.01306 7.10734 8.83165Z" fill="#EDE20F"/>
</svg>
