<svg width="46" height="47" viewBox="0 0 46 47" fill="none" xmlns="http://www.w3.org/2000/svg">
<path d="M23.6208 3.57088C21.5311 3.57088 19.5165 3.86387 17.5996 4.42748C16.2916 1.83488 13.6155 0.0615234 10.5184 0.0615234C6.1359 0.0615234 2.58785 3.63094 2.58785 8.0271C2.58785 9.9058 3.23427 11.6268 4.30922 12.9869C4.26412 12.9869 4.22659 12.9869 4.18149 12.9869C2.27965 12.9869 0.746094 14.5349 0.746094 16.4436C0.746094 17.8714 1.61059 19.0963 2.83589 19.6224C2.36982 21.3808 2.12179 23.2295 2.12179 25.1383C2.11427 37.0342 11.7061 46.6156 23.3878 46.7208C35.3476 46.826 45.0297 37.1095 45.0598 25.2135C45.1049 13.2875 35.4904 3.57839 23.6208 3.57088ZM34.7086 16.6992C34.641 17.7362 34.423 18.7508 34.205 19.7578C33.6337 22.3579 33.0624 24.9579 32.4309 27.5355C31.8972 29.7223 31.3861 31.9166 30.8448 34.0959C30.499 35.4786 29.191 35.9295 28.0785 35.0352C26.7554 33.9757 25.3723 33.0137 24.0042 32.0218C23.7712 31.8565 23.6585 31.9016 23.463 32.0669C22.5985 32.8034 21.8167 33.6301 20.9748 34.3891C20.9522 34.4116 20.9222 34.434 20.8996 34.4566C19.975 35.2456 19.1707 35.0503 18.7422 33.9005C18.1183 32.2247 17.5244 30.5414 16.923 28.8656C16.7802 28.4673 16.6224 28.0767 16.4946 27.6784C16.4269 27.4605 16.3066 27.3477 16.0886 27.2726C14.6078 26.7991 13.1344 26.3181 11.661 25.8371C11.3453 25.7319 11.0446 25.6193 10.8116 25.3638C10.3981 24.9129 10.4207 24.2516 10.8718 23.8383C11.2702 23.4625 11.7813 23.2822 12.27 23.0793C16.8855 21.2006 21.5687 19.4871 26.2518 17.7738C28.3341 17.0148 30.4238 16.2482 32.5061 15.4817C32.8068 15.369 33.1074 15.2715 33.4307 15.2639C34.2651 15.2414 34.6936 15.6471 34.7237 16.4888C34.7087 16.5564 34.7086 16.6241 34.7086 16.6992Z" fill="#EDE20F"/>
</svg>
