<svg width="51" height="50" viewBox="0 0 51 50" fill="none" xmlns="http://www.w3.org/2000/svg">
<path d="M37.7449 0.642578C33.6931 0.642578 30.0999 2.60386 27.8523 5.63232C27.093 5.28664 26.2586 5.0988 25.3716 5.0988C22.8533 5.0988 20.6959 6.65437 19.7939 8.86372C17.426 8.85621 15.0656 8.8638 12.6976 8.93894C11.1491 9.02912 9.60813 9.11922 8.08215 9.41981C6.75913 9.68283 5.48872 10.081 4.36115 10.8551C2.51944 12.1176 1.55726 13.9363 1.08368 16.078C0.73037 17.6787 0.610096 19.3018 0.51989 20.925C0.512373 21.0377 0.564965 21.173 0.444691 21.2707C0.437173 21.421 0.429688 21.5638 0.429688 21.7141C0.429688 26.2606 0.429688 30.8069 0.429688 35.3534C0.429688 35.9921 0.437173 36.6385 0.444691 37.2772C0.564965 37.3824 0.512373 37.5327 0.51989 37.6605C0.632647 39.6218 0.767938 41.5757 1.34676 43.4694C2.25633 46.4227 4.27092 48.1812 7.21013 48.9252C8.90149 49.3535 10.6229 49.4812 12.3594 49.5788C12.4722 49.5864 12.6074 49.5338 12.6976 49.6541C12.8179 49.6616 12.9458 49.6691 13.066 49.6691C17.7267 49.6691 22.3872 49.6691 27.0479 49.6691C27.6041 49.6691 28.153 49.6616 28.7092 49.6541C28.8145 49.5263 28.9648 49.5864 29.0851 49.5788C30.9042 49.4661 32.7158 49.3459 34.4824 48.865C37.7899 47.9707 39.6842 45.7689 40.3983 42.4624C40.7441 40.8842 40.8569 39.2912 40.9546 37.6906C40.9621 37.5778 40.9096 37.4424 41.0299 37.3447C41.0374 37.2095 41.0449 37.0744 41.0449 36.9391C41.0449 32.9562 41.0449 28.9658 41.0449 24.9829C46.2543 23.5326 50.0729 18.7307 50.0729 13.042C50.0804 6.19601 44.5554 0.642578 37.7449 0.642578ZM33.911 38.2615C32.5955 38.2615 31.2801 38.254 29.9571 38.269C29.6564 38.2766 29.5361 38.1789 29.4308 37.9008C28.604 35.6389 27.1832 33.8955 24.9807 32.8509C24.3191 32.5353 23.6201 32.3475 22.8985 32.2348C22.6354 32.1972 22.5602 32.2723 22.5677 32.5429C22.5752 34.3389 22.5677 36.1273 22.5752 37.9234C22.5752 38.1263 22.5827 38.269 22.2971 38.269C19.7262 38.2766 17.2456 37.8708 14.9453 36.661C12.0136 35.1279 10.0817 32.7157 8.84887 29.6797C7.79646 27.0946 7.39805 24.3818 7.29281 21.6088C7.28529 21.3383 7.37551 21.2707 7.63109 21.2782C8.92404 21.2857 10.217 21.2932 11.51 21.2782C11.8407 21.2707 11.9535 21.3609 11.961 21.7066C12.0061 23.7055 12.2993 25.6667 12.9984 27.5529C13.7275 29.5218 14.8175 31.2203 16.6292 32.3625C17.005 32.5955 17.411 32.7758 17.8319 32.9261C18.1326 33.0313 18.2152 32.9636 18.2152 32.648C18.2077 30.8144 18.2078 28.9884 18.2078 27.1623C18.2078 25.3287 18.2153 23.5026 18.2003 21.669C18.2003 21.3533 18.2904 21.2707 18.5986 21.2782C19.8013 21.2932 21.0116 21.2932 22.2144 21.2782C22.5 21.2782 22.5903 21.3458 22.5903 21.6464C22.5752 23.6228 22.5902 25.6066 22.5752 27.583C22.5752 27.9287 22.6579 28.0038 22.9962 27.9287C24.432 27.583 25.552 26.7489 26.5292 25.6893C27.6192 24.5019 28.4236 23.1418 28.9047 21.5937C28.9723 21.3758 29.0775 21.2857 29.3181 21.2857C30.5358 21.3007 31.7536 21.2932 32.9714 21.2932C33.3848 21.2932 33.3924 21.3006 33.2872 21.7515C32.9188 23.3372 32.2573 24.7875 31.3101 26.1101C30.3329 27.4778 29.1678 28.6577 27.747 29.5595C27.4689 29.7399 27.5441 29.8 27.7771 29.9277C30.9869 31.6862 33.1293 34.3314 34.2569 37.8107C34.3922 38.2616 34.3921 38.2615 33.911 38.2615Z" fill="#EDE20F"/>
</svg>
