<svg width="46" height="33" viewBox="0 0 46 33" fill="none" xmlns="http://www.w3.org/2000/svg">
<path d="M36.9031 32.3617C36.64 32.5271 36.3393 32.497 36.0462 32.497C27.4992 32.497 18.9522 32.4969 10.4052 32.4894C10.0443 32.4894 9.69099 32.4746 9.33017 32.4595C8.37549 32.2341 7.41334 32.0761 6.46618 31.753C3.83517 30.8662 2.00095 29.2431 1.26427 26.5077C1.01621 25.5909 0.82829 24.6591 0.617809 23.7348C0.820772 23.3515 0.572754 22.9908 0.572754 22.6075C0.595305 18.1513 0.587711 13.7025 0.587711 9.24621C0.587711 8.78781 0.557676 8.32183 0.715536 7.87095C0.73057 7.69811 0.745564 7.52532 0.768116 7.35999C1.10639 4.50437 2.39941 2.40017 5.25593 1.48337C6.48122 1.0926 7.73657 0.912266 8.99946 0.754455C9.45049 0.656763 9.90898 0.746911 10.36 0.724367C15.0958 0.468864 19.8392 0.664329 24.575 0.61924C27.3789 0.589181 30.1753 0.596696 32.9792 0.61924C34.2872 0.626755 35.5951 0.701844 36.9031 0.746933C37.7526 0.859655 38.602 0.93495 39.4439 1.08525C42.977 1.70897 44.7585 3.53506 45.3374 7.08204C45.3825 7.36009 45.3149 7.67558 45.578 7.89351C45.578 13.229 45.578 18.5646 45.578 23.8925C45.3299 24.2232 45.3749 24.629 45.3148 25.0047C44.8337 27.9054 43.6987 30.3253 40.767 31.4976C39.5266 31.9936 38.2262 32.2265 36.9031 32.3617ZM17.9223 16.3401C17.9223 17.9483 17.8998 19.5491 17.9298 21.1572C17.9599 22.5099 19.0348 23.1485 20.23 22.5323C23.2595 20.9542 26.2739 19.3537 29.2958 17.7681C29.8821 17.46 30.2805 17.0315 30.258 16.3251C30.243 15.6488 29.852 15.2657 29.2883 14.9726C26.3039 13.4245 23.3271 11.8464 20.3428 10.2909C18.9672 9.56945 17.9449 10.1932 17.9298 11.7637C17.9148 13.2817 17.9223 14.8071 17.9223 16.3401Z" fill="#EDE20F"/>
</svg>
