<svg width="643" height="169" viewBox="0 0 643 169" fill="none" xmlns="http://www.w3.org/2000/svg">
<g filter="url(#filter0_d_192_18)">
<path d="M60.3125 0.03125H60.5C61.5 0.03125 62 2.28125 62 6.78125C68.0625 6.03125 73.625 5.65625 78.6875 5.65625C91.2188 5.65625 102.281 7.84375 111.875 12.2188C116.906 15.0625 120.031 18.6875 121.25 23.0938V23.8438C121.25 25.9062 119.938 27.5938 117.312 28.9062H117.125C116.406 28.9062 115.656 27.5938 114.875 24.9688C112.656 21.0937 108.031 18.0937 101 15.9688C97.3438 14.9688 92.3438 14.0938 86 13.3438C83.75 51.9688 82.625 75.6562 82.625 84.4062V91.9062L82.8125 99.5938C81.5312 102.719 80.0938 104.281 78.5 104.281H77.75C77 104.281 76.625 101.219 76.625 95.0938L76.4375 90.2188C76.4375 81.75 77.6875 56 80.1875 12.9688L77 12.7812H76.25C71.875 12.7812 67.25 13.0312 62.375 13.5312C62.625 17.5938 62.75 22.9062 62.75 29.4688C62.75 57.3438 60.25 75.4688 55.25 83.8438C51.0938 89.0938 46.3438 91.7188 41 91.7188C34.0938 91.7188 26.7188 87.4688 18.875 78.9688L18.6875 77.8438C19.4688 74.5938 20.8438 72.9688 22.8125 72.9688C23.0625 72.9688 24.6875 74.3438 27.6875 77.0938C34.125 82.3438 39.75 84.9688 44.5625 84.9688C49.4688 84.9688 52.7188 81.2812 54.3125 73.9062C55.9375 60.75 56.75 47.875 56.75 35.2812H56.9375L56.75 35.0938L56.9375 31.5312L56.75 15.4062L56.5625 14.4688C44.8438 16.8438 35.4688 21.1563 28.4375 27.4062C24.8125 30.8437 23 34.0312 23 36.9688C23 40.7188 26.25 43.5938 32.75 45.5938L41.75 46.5312L41.9375 46.7188V46.9062C41.9375 47.4688 40.5 47.7812 37.625 47.8438H37.4375C28.0625 47.8438 22 45.7188 19.25 41.4688C17.75 39.6875 17 37.625 17 35.2812C17 27.4375 27.4375 19.125 48.3125 10.3438L56.1875 7.90625L56 4.34375C56 3.1875 57.0625 1.8125 59.1875 0.21875L60.3125 0.03125ZM134.859 47.4219C136.64 48.1719 137.827 54.7344 138.421 67.1094C140.796 89.3906 141.984 108.703 141.984 125.047L141.796 128.984H141.609L141.796 129.172C141.796 132.359 140.546 136.547 138.046 141.734C135.109 146.109 131.734 148.297 127.921 148.297H127.171C121.015 148.297 114.39 145.172 107.296 138.922C102.421 133.891 99.9837 128.891 99.9837 123.922V122.797C99.9837 114.234 107.046 105.984 121.171 98.0469L123.234 97.4844L123.421 97.6719V97.8594C123.109 98.3281 120.046 100.828 114.234 105.359C107.734 110.984 104.484 115.984 104.484 120.359C104.484 125.047 107.296 129.859 112.921 134.797C119.827 139.797 125.14 142.297 128.859 142.297H129.984C132.702 142.297 134.577 140.734 135.609 137.609C136.484 134.297 136.921 130.359 136.921 125.797C136.921 112.297 136.109 96.7344 134.484 79.1094C128.359 87.6094 122.921 91.8594 118.171 91.8594L117.984 92.0469H117.796V91.8594L117.234 92.0469C112.077 92.0469 108.577 89.4844 106.734 84.3594L106.171 80.0469C106.171 73.4844 109.359 64.1094 115.734 51.9219L117.421 50.9844C118.546 51.2344 119.109 51.8594 119.109 52.8594V53.4219C119.109 53.8906 117.484 57.5781 114.234 64.4844C111.984 70.0469 110.859 74.4844 110.859 77.7969V78.3594C110.859 81.5469 112.234 83.7344 114.984 84.9219L118.546 85.4844C123.515 85.4844 127.827 82.3594 131.484 76.1094C132.484 72.8594 132.984 69.4219 132.984 65.7969V64.8594C132.984 60.4531 132.296 56.0781 130.921 51.7344C131.765 48.8594 133.077 47.4219 134.859 47.4219ZM155.386 35C156.886 35 158.761 37.9375 161.011 43.8125C161.761 46.4375 162.136 49.125 162.136 51.875V55.25H162.324C162.792 53.8438 164.48 51.7812 167.386 49.0625C170.48 46.5625 173.417 45.3125 176.199 45.3125C179.667 45.3125 182.73 47.5625 185.386 52.0625L185.761 53.9375H185.949C188.136 48.9375 191.136 46.4375 194.949 46.4375C199.886 46.4375 203.199 48.4375 204.886 52.4375C205.886 54.7812 206.386 57.9688 206.386 62V70.625C206.386 79.4062 208.324 84.2812 212.199 85.25C214.824 85.5 216.136 86.125 216.136 87.125V87.6875C215.48 90.5625 214.292 92 212.574 92C208.949 92 206.011 90.0625 203.761 86.1875C202.386 82.9062 201.699 79.3438 201.699 75.5L202.636 63.3125C202.636 57.0625 200.511 53.9375 196.261 53.9375H195.699C192.011 53.9375 189.761 55.875 188.949 59.75C187.042 80 185.792 90.125 185.199 90.125C184.167 91.375 183.105 92 182.011 92C181.386 91.6875 181.074 91.1875 181.074 90.5C182.199 81.1875 182.761 74.375 182.761 70.0625C182.761 61.2188 181.261 55.5312 178.261 53C177.167 52.5 176.042 52.25 174.886 52.25H173.949C166.199 52.25 161.074 60.875 158.574 78.125C157.355 86.375 156.48 90.5 155.949 90.5C154.886 91.5 154.011 92 153.324 92C152.699 92 152.261 91.5 152.011 90.5L157.074 58.25L157.261 54.875C157.261 49.3125 155.511 44.375 152.011 40.0625V39.3125C152.011 37.4375 153.136 36 155.386 35ZM242.008 40.25C242.633 40.4375 242.945 40.875 242.945 41.5625C242.945 42.4375 241.008 45 237.133 49.25C230.226 57.9688 226.539 64.5312 226.07 68.9375V69.125C231.008 64.75 236.32 62.5625 242.008 62.5625H243.883C250.914 62.5625 255.601 65.4375 257.945 71.1875L258.508 74.9375C258.508 80.2188 255.82 84.9062 250.445 89C247.133 91 243.57 92 239.758 92H238.258C231.133 92 225.758 89.0625 222.133 83.1875C221.008 81.0312 220.445 78.7812 220.445 76.4375V74.9375C220.445 66.7812 225.008 57.1562 234.133 46.0625C237.883 42.1875 240.508 40.25 242.008 40.25ZM225.883 76.8125C225.883 81.5938 229.945 84.6562 238.07 86L240.32 86.1875C247.414 86.1875 252.101 84.25 254.383 80.375C254.883 78.875 255.133 77.625 255.133 76.625C255.133 71.25 250.383 68.5625 240.883 68.5625C233.57 68.5625 228.758 70.3125 226.445 73.8125C226.07 74.8438 225.883 75.8438 225.883 76.8125ZM305.18 40.0156H305.367C305.992 40.3906 306.305 40.8281 306.305 41.3281L304.617 64.9531V65.1406H304.805C307.555 60.8906 311.43 57.3281 316.43 54.4531C322.805 51.2031 328.742 49.5781 334.242 49.5781H335.18C336.055 49.5781 336.492 50.0156 336.492 50.8906V51.2656C336.024 54.2656 334.524 55.7656 331.992 55.7656C325.805 55.7656 319.117 58.1406 311.93 62.8906C307.805 66.2656 305.742 69.9531 305.742 73.9531C305.742 79.0469 308.055 82.7344 312.68 85.0156C314.117 85.3906 315.617 85.5781 317.18 85.5781H318.68C324.524 85.5781 330.399 82.7031 336.305 76.9531H336.492V77.3281C333.774 83.3906 328.274 88.0156 319.992 91.2031C318.024 91.7031 316.274 91.9531 314.742 91.9531C310.867 91.9531 307.492 90.3906 304.617 87.2656L304.805 88.5781L305.18 96.6406C305.18 97.8281 304.117 99.0781 301.992 100.391H301.055C300.055 100.391 299.555 93.8281 299.555 80.7031V77.8906C299.555 66.4844 300.242 54.7344 301.617 42.6406C302.711 40.8906 303.899 40.0156 305.18 40.0156ZM402.11 47.4219C403.891 48.1719 405.079 54.7344 405.672 67.1094C408.047 89.3906 409.235 108.703 409.235 125.047L409.047 128.984H408.86L409.047 129.172C409.047 132.359 407.797 136.547 405.297 141.734C402.36 146.109 398.985 148.297 395.172 148.297H394.422C388.266 148.297 381.641 145.172 374.547 138.922C369.672 133.891 367.235 128.891 367.235 123.922V122.797C367.235 114.234 374.297 105.984 388.422 98.0469L390.485 97.4844L390.672 97.6719V97.8594C390.36 98.3281 387.297 100.828 381.485 105.359C374.985 110.984 371.735 115.984 371.735 120.359C371.735 125.047 374.547 129.859 380.172 134.797C387.079 139.797 392.391 142.297 396.11 142.297H397.235C399.954 142.297 401.829 140.734 402.86 137.609C403.735 134.297 404.172 130.359 404.172 125.797C404.172 112.297 403.36 96.7344 401.735 79.1094C395.61 87.6094 390.172 91.8594 385.422 91.8594L385.235 92.0469H385.047V91.8594L384.485 92.0469C379.329 92.0469 375.829 89.4844 373.985 84.3594L373.422 80.0469C373.422 73.4844 376.61 64.1094 382.985 51.9219L384.672 50.9844C385.797 51.2344 386.36 51.8594 386.36 52.8594V53.4219C386.36 53.8906 384.735 57.5781 381.485 64.4844C379.235 70.0469 378.11 74.4844 378.11 77.7969V78.3594C378.11 81.5469 379.485 83.7344 382.235 84.9219L385.797 85.4844C390.766 85.4844 395.079 82.3594 398.735 76.1094C399.735 72.8594 400.235 69.4219 400.235 65.7969V64.8594C400.235 60.4531 399.547 56.0781 398.172 51.7344C399.016 48.8594 400.329 47.4219 402.11 47.4219ZM440.45 45.875V46.0625L440.638 45.875C444.575 45.875 447.388 48.25 449.075 53L449.263 54.875C449.263 56.8125 448.575 58.5 447.2 59.9375H447.013V59.75C447.013 56.3125 445.075 53.9375 441.2 52.625L439.513 52.4375H438.388C432.763 52.4375 428.2 56.1875 424.7 63.6875C423.825 66.1875 423.388 68.5625 423.388 70.8125C423.388 76.3125 425.575 80.5 429.95 83.375C432.138 84.625 434.7 85.25 437.638 85.25C445.169 85.25 450.419 82.9375 453.388 78.3125H453.575L453.95 78.6875C453.95 82.5 451.263 86.125 445.888 89.5625C442.169 91.1875 438.856 92 435.95 92C429.138 92 424.075 88.125 420.763 80.375C419.763 77.6562 419.263 74.7812 419.263 71.75C419.263 62.0625 423.388 54.3125 431.638 48.5C435.388 46.75 438.325 45.875 440.45 45.875ZM467.071 35.9375C468.571 35.9375 470.446 38.9375 472.696 44.9375C473.446 47.4062 473.821 50.2812 473.821 53.5625V56C477.915 49.25 483.04 45.875 489.196 45.875C495.196 45.875 498.196 50.9375 498.196 61.0625V66.875C498.196 77.125 499.634 82.9375 502.509 84.3125C504.009 85.3125 505.634 85.8125 507.384 85.8125C507.884 86.4062 508.134 86.9062 508.134 87.3125C507.29 90.4375 506.103 92 504.571 92C501.009 92 498.071 90.125 495.759 86.375C494.259 83.0312 493.509 79.3438 493.509 75.3125L493.884 65.375V64.0625C493.884 58.5 492.696 54.875 490.321 53.1875C489.259 52.5625 487.946 52.25 486.384 52.25C478.915 52.25 473.603 60.75 470.446 77.75C469.103 86.875 468.165 91.4375 467.634 91.4375C466.603 92.4375 465.665 92.9375 464.821 92.9375C464.228 92.9375 463.853 92.375 463.696 91.25L468.759 59V54.5C468.759 49.8125 467.071 45.3125 463.696 41V39.875C464.571 37.25 465.696 35.9375 467.071 35.9375ZM540.661 41.375C544.224 41.375 546.661 43.125 547.974 46.625L548.349 50.375C548.349 59.9375 538.536 67.875 518.911 74.1875C521.349 82.0625 527.099 86 536.161 86C543.193 86 549.568 82.9375 555.286 76.8125L555.474 77V77.1875C548.474 87.0625 540.411 92 531.286 92C525.286 92 520.161 89.1875 515.911 83.5625C513.786 80.375 512.724 76.5625 512.724 72.125C512.724 63.3438 516.474 55.3438 523.974 48.125C530.474 43.625 536.036 41.375 540.661 41.375ZM518.349 70.0625C534.974 64.7812 543.286 59.0312 543.286 52.8125C543.286 49.4062 541.661 47.4688 538.411 47H537.849C533.255 47 528.005 50.25 522.099 56.75C519.599 61.4375 518.349 65.875 518.349 70.0625ZM565.374 36.6875C565.811 36.9688 567.374 39.5938 570.061 44.5625C578.218 57.7188 582.655 64.6562 583.374 65.375C590.53 57.1562 594.968 50.5312 596.686 45.5C597.499 44 598.561 43.25 599.874 43.25H600.624C601.249 43.5625 601.561 44.0625 601.561 44.75C601.03 49.5 596.405 57.125 587.686 67.625L585.811 69.5C588.593 74.25 592.468 79.375 597.436 84.875C598.311 85.4375 598.749 86.1875 598.749 87.125C597.811 90.25 596.561 91.8125 594.999 91.8125H594.624C593.655 91.8125 591.218 89.3125 587.311 84.3125C584.936 81.2812 582.874 78.2812 581.124 75.3125H580.749C575.749 81.4688 565.999 91.1562 551.499 104.375L547.186 107.938H546.436C546.436 106.875 548.749 104.25 553.374 100.062C559.405 93.5312 567.718 83.8438 578.311 71C570.03 58.3125 564.28 48.8125 561.061 42.5V42.125C561.061 39.625 562.249 37.8125 564.624 36.6875H565.374ZM635.307 47.4219C637.089 48.1719 638.276 54.7344 638.87 67.1094C641.245 89.3906 642.432 108.703 642.432 125.047L642.245 128.984H642.057L642.245 129.172C642.245 132.359 640.995 136.547 638.495 141.734C635.557 146.109 632.182 148.297 628.37 148.297H627.62C621.464 148.297 614.839 145.172 607.745 138.922C602.87 133.891 600.432 128.891 600.432 123.922V122.797C600.432 114.234 607.495 105.984 621.62 98.0469L623.682 97.4844L623.87 97.6719V97.8594C623.557 98.3281 620.495 100.828 614.682 105.359C608.182 110.984 604.932 115.984 604.932 120.359C604.932 125.047 607.745 129.859 613.37 134.797C620.276 139.797 625.589 142.297 629.307 142.297H630.432C633.151 142.297 635.026 140.734 636.057 137.609C636.932 134.297 637.37 130.359 637.37 125.797C637.37 112.297 636.557 96.7344 634.932 79.1094C628.807 87.6094 623.37 91.8594 618.62 91.8594L618.432 92.0469H618.245V91.8594L617.682 92.0469C612.526 92.0469 609.026 89.4844 607.182 84.3594L606.62 80.0469C606.62 73.4844 609.807 64.1094 616.182 51.9219L617.87 50.9844C618.995 51.2344 619.557 51.8594 619.557 52.8594V53.4219C619.557 53.8906 617.932 57.5781 614.682 64.4844C612.432 70.0469 611.307 74.4844 611.307 77.7969V78.3594C611.307 81.5469 612.682 83.7344 615.432 84.9219L618.995 85.4844C623.964 85.4844 628.276 82.3594 631.932 76.1094C632.932 72.8594 633.432 69.4219 633.432 65.7969V64.8594C633.432 60.4531 632.745 56.0781 631.37 51.7344C632.214 48.8594 633.526 47.4219 635.307 47.4219Z" fill="#D8C40A"/>
</g>
<defs>
<filter id="filter0_d_192_18" x="0" y="0.03125" width="642.433" height="168.266" filterUnits="userSpaceOnUse" color-interpolation-filters="sRGB">
<feFlood flood-opacity="0" result="BackgroundImageFix"/>
<feColorMatrix in="SourceAlpha" type="matrix" values="0 0 0 0 0 0 0 0 0 0 0 0 0 0 0 0 0 0 127 0" result="hardAlpha"/>
<feOffset dx="-13" dy="16"/>
<feGaussianBlur stdDeviation="2"/>
<feComposite in2="hardAlpha" operator="out"/>
<feColorMatrix type="matrix" values="0 0 0 0 0 0 0 0 0 0 0 0 0 0 0 0 0 0 0.25 0"/>
<feBlend mode="normal" in2="BackgroundImageFix" result="effect1_dropShadow_192_18"/>
<feBlend mode="normal" in="SourceGraphic" in2="effect1_dropShadow_192_18" result="shape"/>
</filter>
</defs>
</svg>
