<svg width="304" height="162" viewBox="0 0 304 162" fill="none" xmlns="http://www.w3.org/2000/svg">
<path d="M199.234 0.984375H199.703C204.41 0.984375 208.277 3.25 211.305 7.78125C212.086 9.59766 212.477 11.2773 212.477 12.8203V13.1719C212.477 15.2812 211.148 17.4297 208.492 19.6172H208.141L207.906 19.3828V19.2656L210.133 14.3438L210.25 13.5234C210.25 10.1836 207.633 7.60547 202.398 5.78906L199.938 5.4375C194.391 5.4375 189.273 7.97656 184.586 13.0547C179.742 19.6562 177.32 26.5312 177.32 33.6797V34.8516C177.32 41.6094 179.43 46.6875 183.648 50.0859C187.105 52.1172 190.543 53.1328 193.961 53.1328H195.484C200.719 53.1328 204.117 51.1797 205.68 47.2734L205.914 45.2812C205.914 44.0312 205.484 42.2734 204.625 40.0078V39.6562C204.625 38.3281 205.445 37.3516 207.086 36.7266C208.121 36.7266 208.941 39.0703 209.547 43.7578C209.547 49.5 205.914 53.6406 198.648 56.1797C196.539 56.7266 194.703 57 193.141 57H191.383C185.289 57 180.289 54.3828 176.383 49.1484C173.414 44.4805 171.93 39.4023 171.93 33.9141C171.93 25.8086 175.172 17.7617 181.656 9.77344C187.086 3.91406 192.945 0.984375 199.234 0.984375ZM226.656 28.1719C227.164 28.1719 227.711 29.6172 228.297 32.5078C230.895 41.1406 233.941 47.2734 237.438 50.9062C239.039 52.1758 240.875 52.918 242.945 53.1328L243.297 53.8359C242.867 55.9453 242.047 57 240.836 57C235.621 57 231.168 52.1172 227.477 42.3516L226.07 37.8984H225.953C225.953 39.3828 224.469 43.7188 221.5 50.9062C219.645 54.7344 217.262 58.5625 214.352 62.3906C214 62.7031 213.648 62.8594 213.297 62.8594C212.75 62.625 212.477 62.2344 212.477 61.6875V61.2188C212.477 60.4766 213.453 58.875 215.406 56.4141C217.75 52.5469 219.664 48.6016 221.148 44.5781C223.102 38.2891 224.078 33.9531 224.078 31.5703C224.195 30.7891 224.43 30.0859 224.781 29.4609C225.621 28.6016 226.246 28.1719 226.656 28.1719ZM261.168 25.3594C263.395 25.3594 264.918 26.4531 265.738 28.6406L265.973 30.9844C265.973 36.9609 259.84 41.9219 247.574 45.8672C249.098 50.7891 252.691 53.25 258.355 53.25C262.75 53.25 266.734 51.3359 270.309 47.5078L270.426 47.625V47.7422C266.051 53.9141 261.012 57 255.309 57C251.559 57 248.355 55.2422 245.699 51.7266C244.371 49.7344 243.707 47.3516 243.707 44.5781C243.707 39.0898 246.051 34.0898 250.738 29.5781C254.801 26.7656 258.277 25.3594 261.168 25.3594ZM247.223 43.2891C257.613 39.9883 262.809 36.3945 262.809 32.5078C262.809 30.3789 261.793 29.168 259.762 28.875H259.41C256.539 28.875 253.258 30.9062 249.566 34.9688C248.004 37.8984 247.223 40.6719 247.223 43.2891ZM294.918 25.4473H295.855C298.004 25.4473 299.215 26.1504 299.488 27.5566C299 29.5098 298.141 30.4863 296.91 30.4863C295.973 29.9395 295.113 29.666 294.332 29.666H293.512C291.012 29.666 288.238 31.4238 285.191 34.9395C282.301 39.1387 280.855 43.084 280.855 46.7754V47.0098C280.855 49.5293 281.793 51.209 283.668 52.0488C284.312 52.3613 285.055 52.5176 285.895 52.5176C289.352 52.5176 291.734 49.3145 293.043 42.9082L293.16 40.6816V39.041L293.043 37.4004C293.824 35.4473 294.645 34.4707 295.504 34.4707H295.738C296.422 35.2715 297.672 38.0449 299.488 42.791C302.223 49.8613 303.59 56.1113 303.59 61.541V62.0098C303.59 71.1699 299.762 78.0059 292.105 82.5176C289.41 83.6113 286.988 84.1582 284.84 84.1582C280.094 84.1582 276.109 82.0098 272.887 77.7129C271.48 75.1348 270.777 72.5176 270.777 69.8613C270.777 65.0762 273.004 61.7559 277.457 59.9004H277.574V60.0176C275.094 62.1074 273.844 63.3965 273.824 63.8848C273.277 64.9785 273.004 66.2676 273.004 67.752V68.1035C273.004 73.8457 275.895 77.6348 281.676 79.4707C282.984 79.9395 284.312 80.1738 285.66 80.1738H286.715C291.383 80.1738 295.289 77.5566 298.434 72.3223C299.605 69.998 300.191 67.1465 300.191 63.7676V63.2988C300.191 57.8691 298.785 51.5801 295.973 44.4316H295.855C294.84 48.6895 293.043 51.9707 290.465 54.2754C288.082 55.9941 285.855 56.8535 283.785 56.8535C280.035 56.8535 278.16 54.1582 278.16 48.7676C278.16 42.8887 280.621 37.0293 285.543 31.1895C289.273 27.3613 292.398 25.4473 294.918 25.4473ZM27.6719 68.1094C29.8203 68.1094 31.3438 69.2031 32.2422 71.3906C32.7109 72.9336 32.9453 74.3398 32.9453 75.6094C32.9453 80.9609 30.25 86.4297 24.8594 92.0156C20.2891 96.2148 14.7812 99.5352 8.33594 101.977C8.17969 103.012 8.10156 104.691 8.10156 107.016V107.367C8.10156 114.574 9.9375 119.223 13.6094 121.312C14.5273 121.625 15.2305 121.781 15.7188 121.781H16.4219C19.1758 121.781 21.2461 119.906 22.6328 116.156L22.8672 113.695C22.8672 109.359 20.0156 106.352 14.3125 104.672L13.375 104.555C11.4023 104.555 10.2305 106.117 9.85938 109.242L9.50781 109.711L9.27344 108.891C9.27344 105.453 10.5234 103.148 13.0234 101.977C14.0391 101.508 15.0547 101.273 16.0703 101.273C19.1758 101.273 21.9102 102.797 24.2734 105.844C25.4453 107.738 26.0312 109.926 26.0312 112.406C26.0312 117.621 23.7266 121.84 19.1172 125.062C17.7891 125.688 16.6172 126 15.6016 126H15.0156C11.7344 126 9 123.852 6.8125 119.555C5.71875 115.941 5.17188 112.152 5.17188 108.188L5.40625 103.031H5.28906C2.71094 103.812 1.22656 104.203 0.835938 104.203C0.367188 104.027 0.132812 103.715 0.132812 103.266C0.582031 101.156 1.36328 100.102 2.47656 100.102C4.44922 99.5742 5.62109 99.1836 5.99219 98.9297C6.85156 93.9688 7.82812 89.7891 8.92188 86.3906C11.8711 78.793 15.6211 73.5977 20.1719 70.8047C22.9453 69.0078 25.4453 68.1094 27.6719 68.1094ZM8.80469 98.2266C13.6289 96.5469 17.6914 94.6719 20.9922 92.6016C27.2422 88.1289 30.3672 83.4023 30.3672 78.4219V77.9531C30.3672 75.3945 29.1562 73.5977 26.7344 72.5625L25.2109 72.3281C22.6719 72.3281 19.625 74.3984 16.0703 78.5391C14.5469 80.2578 12.9453 83.4609 11.2656 88.1484C9.72266 93.2461 8.90234 96.6055 8.80469 98.2266ZM72.3789 94.8281C73.5312 94.8281 74.1953 95.9219 74.3711 98.1094V99.2812C74.3711 103.109 71.8711 108.891 66.8711 116.625C68.1602 119.496 70.0352 121.41 72.4961 122.367C73.1797 122.68 74.4297 122.953 76.2461 123.188C76.4805 123.48 76.5977 123.754 76.5977 124.008V124.125C76.5977 125.395 75.8945 126.332 74.4883 126.938H74.2539C70.8164 126.938 67.8477 125.258 65.3477 121.898C64.7227 120.98 64.4102 120.395 64.4102 120.141C60.9141 124.047 57.9062 126 55.3867 126H55.0352C51.7344 126 49.3906 123.617 48.0039 118.852C47.7695 117.66 47.6523 116.449 47.6523 115.219V115.102C47.6523 110.316 49.0195 104.34 51.7539 97.1719L52.3398 96.7031H52.5742L52.8086 96.9375V97.2891C51.2461 102.367 50.4648 106.781 50.4648 110.531C50.4648 116.137 51.6758 119.809 54.0977 121.547L55.2695 121.781H55.7383C57.8477 121.781 60.3477 120.141 63.2383 116.859C62.8477 115.512 62.6523 113.988 62.6523 112.289V111.703C62.6523 103.93 65.3867 98.4219 70.8555 95.1797L72.3789 94.8281ZM65.582 110.062L65.9336 113.344H66.0508C69.1953 108.129 70.9531 103.832 71.3242 100.453V99.9844C71.2656 99.2031 71.0312 98.8125 70.6211 98.8125C69.5469 98.8125 68.3359 100.258 66.9883 103.148C66.0508 105.414 65.582 107.719 65.582 110.062ZM89.7227 97.1719V97.2891L89.8398 97.1719C92.3008 97.1719 94.0586 98.6562 95.1133 101.625L95.2305 102.797C95.2305 104.008 94.8008 105.062 93.9414 105.961H93.8242V105.844C93.8242 103.695 92.6133 102.211 90.1914 101.391L89.1367 101.273H88.4336C84.918 101.273 82.0664 103.617 79.8789 108.305C79.332 109.867 79.0586 111.352 79.0586 112.758C79.0586 116.195 80.4258 118.812 83.1602 120.609C84.5273 121.391 86.1289 121.781 87.9648 121.781C92.6719 121.781 95.9531 120.336 97.8086 117.445H97.9258L98.1602 117.68C98.1602 120.062 96.4805 122.328 93.1211 124.477C90.7969 125.492 88.7266 126 86.9102 126C82.6523 126 79.4883 123.578 77.418 118.734C76.793 117.035 76.4805 115.238 76.4805 113.344C76.4805 107.289 79.0586 102.445 84.2148 98.8125C86.5586 97.7188 88.3945 97.1719 89.7227 97.1719ZM105.367 93.5098H105.484C105.875 93.7441 106.07 94.0176 106.07 94.3301L105.016 109.096V109.213H105.133C106.852 106.557 109.273 104.33 112.398 102.533C116.383 100.502 120.094 99.4863 123.531 99.4863H124.117C124.664 99.4863 124.938 99.7598 124.938 100.307V100.541C124.645 102.416 123.707 103.354 122.125 103.354C118.258 103.354 114.078 104.838 109.586 107.807C107.008 109.916 105.719 112.221 105.719 114.721C105.719 117.904 107.164 120.209 110.055 121.635C110.953 121.869 111.891 121.986 112.867 121.986H113.805C117.457 121.986 121.129 120.189 124.82 116.596H124.938V116.83C123.238 120.619 119.801 123.51 114.625 125.502C113.395 125.814 112.301 125.971 111.344 125.971C108.922 125.971 106.812 124.994 105.016 123.041L105.133 123.861L105.367 128.9C105.367 129.643 104.703 130.424 103.375 131.244H102.789C102.164 131.244 101.852 127.143 101.852 118.939V117.182C101.852 110.053 102.281 102.709 103.141 95.1504C103.824 94.0566 104.566 93.5098 105.367 93.5098ZM145.562 98.1387C146.676 98.6074 147.418 102.709 147.789 110.443C149.273 124.369 150.016 136.439 150.016 146.654L149.898 149.115H149.781L149.898 149.232C149.898 151.225 149.117 153.842 147.555 157.084C145.719 159.818 143.609 161.186 141.227 161.186H140.758C136.91 161.186 132.77 159.232 128.336 155.326C125.289 152.182 123.766 149.057 123.766 145.951V145.248C123.766 139.896 128.18 134.74 137.008 129.779L138.297 129.428L138.414 129.545V129.662C138.219 129.955 136.305 131.518 132.672 134.35C128.609 137.865 126.578 140.99 126.578 143.725C126.578 146.654 128.336 149.662 131.852 152.748C136.168 155.873 139.488 157.436 141.812 157.436H142.516C144.215 157.436 145.387 156.459 146.031 154.506C146.578 152.436 146.852 149.975 146.852 147.123C146.852 138.686 146.344 128.959 145.328 117.943C141.5 123.256 138.102 125.912 135.133 125.912L135.016 126.029H134.898V125.912L134.547 126.029C131.324 126.029 129.137 124.428 127.984 121.225L127.633 118.529C127.633 114.428 129.625 108.568 133.609 100.951L134.664 100.365C135.367 100.521 135.719 100.912 135.719 101.537V101.889C135.719 102.182 134.703 104.486 132.672 108.803C131.266 112.279 130.562 115.053 130.562 117.123V117.475C130.562 119.467 131.422 120.834 133.141 121.576L135.367 121.928C138.473 121.928 141.168 119.975 143.453 116.068C144.078 114.037 144.391 111.889 144.391 109.623V109.037C144.391 106.283 143.961 103.549 143.102 100.834C143.629 99.0371 144.449 98.1387 145.562 98.1387ZM167.125 97.1719V97.2891L167.242 97.1719C169.703 97.1719 171.461 98.6562 172.516 101.625L172.633 102.797C172.633 104.008 172.203 105.062 171.344 105.961H171.227V105.844C171.227 103.695 170.016 102.211 167.594 101.391L166.539 101.273H165.836C162.32 101.273 159.469 103.617 157.281 108.305C156.734 109.867 156.461 111.352 156.461 112.758C156.461 116.195 157.828 118.812 160.562 120.609C161.93 121.391 163.531 121.781 165.367 121.781C170.074 121.781 173.355 120.336 175.211 117.445H175.328L175.562 117.68C175.562 120.062 173.883 122.328 170.523 124.477C168.199 125.492 166.129 126 164.312 126C160.055 126 156.891 123.578 154.82 118.734C154.195 117.035 153.883 115.238 153.883 113.344C153.883 107.289 156.461 102.445 161.617 98.8125C163.961 97.7188 165.797 97.1719 167.125 97.1719ZM192.496 97.1719V97.2891L192.613 97.1719C195.074 97.1719 196.832 98.6562 197.887 101.625L198.004 102.797C198.004 104.008 197.574 105.062 196.715 105.961H196.598V105.844C196.598 103.695 195.387 102.211 192.965 101.391L191.91 101.273H191.207C187.691 101.273 184.84 103.617 182.652 108.305C182.105 109.867 181.832 111.352 181.832 112.758C181.832 116.195 183.199 118.812 185.934 120.609C187.301 121.391 188.902 121.781 190.738 121.781C195.445 121.781 198.727 120.336 200.582 117.445H200.699L200.934 117.68C200.934 120.062 199.254 122.328 195.895 124.477C193.57 125.492 191.5 126 189.684 126C185.426 126 182.262 123.578 180.191 118.734C179.566 117.035 179.254 115.238 179.254 113.344C179.254 107.289 181.832 102.445 186.988 98.8125C189.332 97.7188 191.168 97.1719 192.496 97.1719ZM206.734 90.375C207.672 90.375 208.844 92.2109 210.25 95.8828C210.719 97.5234 210.953 99.2031 210.953 100.922V103.031H211.07C211.363 102.152 212.418 100.863 214.234 99.1641C216.168 97.6016 218.004 96.8203 219.742 96.8203C221.91 96.8203 223.824 98.2266 225.484 101.039L225.719 102.211H225.836C227.203 99.0859 229.078 97.5234 231.461 97.5234C234.547 97.5234 236.617 98.7734 237.672 101.273C238.297 102.738 238.609 104.73 238.609 107.25V112.641C238.609 118.129 239.82 121.176 242.242 121.781C243.883 121.938 244.703 122.328 244.703 122.953V123.305C244.293 125.102 243.551 126 242.477 126C240.211 126 238.375 124.789 236.969 122.367C236.109 120.316 235.68 118.09 235.68 115.688L236.266 108.07C236.266 104.164 234.938 102.211 232.281 102.211H231.93C229.625 102.211 228.219 103.422 227.711 105.844C226.52 118.5 225.738 124.828 225.367 124.828C224.723 125.609 224.059 126 223.375 126C222.984 125.805 222.789 125.492 222.789 125.062C223.492 119.242 223.844 114.984 223.844 112.289C223.844 106.762 222.906 103.207 221.031 101.625C220.348 101.312 219.645 101.156 218.922 101.156H218.336C213.492 101.156 210.289 106.547 208.727 117.328C207.965 122.484 207.418 125.062 207.086 125.062C206.422 125.688 205.875 126 205.445 126C205.055 126 204.781 125.688 204.625 125.062L207.789 104.906L207.906 102.797C207.906 99.3203 206.812 96.2344 204.625 93.5391V93.0703C204.625 91.8984 205.328 91 206.734 90.375ZM272.535 68.1094C274.684 68.1094 276.207 69.2031 277.105 71.3906C277.574 72.9336 277.809 74.3398 277.809 75.6094C277.809 80.9609 275.113 86.4297 269.723 92.0156C265.152 96.2148 259.645 99.5352 253.199 101.977C253.043 103.012 252.965 104.691 252.965 107.016V107.367C252.965 114.574 254.801 119.223 258.473 121.312C259.391 121.625 260.094 121.781 260.582 121.781H261.285C264.039 121.781 266.109 119.906 267.496 116.156L267.73 113.695C267.73 109.359 264.879 106.352 259.176 104.672L258.238 104.555C256.266 104.555 255.094 106.117 254.723 109.242L254.371 109.711L254.137 108.891C254.137 105.453 255.387 103.148 257.887 101.977C258.902 101.508 259.918 101.273 260.934 101.273C264.039 101.273 266.773 102.797 269.137 105.844C270.309 107.738 270.895 109.926 270.895 112.406C270.895 117.621 268.59 121.84 263.98 125.062C262.652 125.688 261.48 126 260.465 126H259.879C256.598 126 253.863 123.852 251.676 119.555C250.582 115.941 250.035 112.152 250.035 108.188L250.27 103.031H250.152C247.574 103.812 246.09 104.203 245.699 104.203C245.23 104.027 244.996 103.715 244.996 103.266C245.445 101.156 246.227 100.102 247.34 100.102C249.312 99.5742 250.484 99.1836 250.855 98.9297C251.715 93.9688 252.691 89.7891 253.785 86.3906C256.734 78.793 260.484 73.5977 265.035 70.8047C267.809 69.0078 270.309 68.1094 272.535 68.1094ZM253.668 98.2266C258.492 96.5469 262.555 94.6719 265.855 92.6016C272.105 88.1289 275.23 83.4023 275.23 78.4219V77.9531C275.23 75.3945 274.02 73.5977 271.598 72.5625L270.074 72.3281C267.535 72.3281 264.488 74.3984 260.934 78.5391C259.41 80.2578 257.809 83.4609 256.129 88.1484C254.586 93.2461 253.766 96.6055 253.668 98.2266ZM294.391 94.3594C296.617 94.3594 298.141 95.4531 298.961 97.6406L299.195 99.9844C299.195 105.961 293.062 110.922 280.797 114.867C282.32 119.789 285.914 122.25 291.578 122.25C295.973 122.25 299.957 120.336 303.531 116.508L303.648 116.625V116.742C299.273 122.914 294.234 126 288.531 126C284.781 126 281.578 124.242 278.922 120.727C277.594 118.734 276.93 116.352 276.93 113.578C276.93 108.09 279.273 103.09 283.961 98.5781C288.023 95.7656 291.5 94.3594 294.391 94.3594ZM280.445 112.289C290.836 108.988 296.031 105.395 296.031 101.508C296.031 99.3789 295.016 98.168 292.984 97.875H292.633C289.762 97.875 286.48 99.9062 282.789 103.969C281.227 106.898 280.445 109.672 280.445 112.289Z" fill="black"/>
</svg>
