<svg width="487" height="219" viewBox="0 0 487 219" fill="none" xmlns="http://www.w3.org/2000/svg">
<path d="M21.0781 0.837891H21.4531C23.4219 0.837891 26.5469 5.71289 30.8281 15.4629C38.3594 29.7129 46.1094 36.8379 54.0781 36.8379C60.7656 36.8379 65.3906 33.0879 67.9531 25.5879C69.5781 19.5566 70.3906 13.9941 70.3906 8.90039C71.0156 7.36914 72.0781 6.11914 73.5781 5.15039H74.5156C74.9531 5.15039 75.3281 5.83789 75.6406 7.21289L75.4531 8.15039C75.4531 20.2754 73.2031 35.2754 68.7031 53.1504C64.7656 65.4316 60.7031 74.7441 56.5156 81.0879C49.2031 92.7129 39.6406 98.5254 27.8281 98.5254C17.5469 98.5254 8.42188 94.1504 0.453125 85.4004V84.4629C0.984375 81.0879 2.04688 79.4004 3.64062 79.4004H4.39062C12.4844 87.4004 20.7344 91.4004 29.1406 91.4004H30.6406C40.9219 91.4004 49.4844 84.9004 56.3281 71.9004C59.5781 65.9629 62.7656 56.6504 65.8906 43.9629L67.2031 37.0254C62.9531 41.5254 58.6406 43.7754 54.2656 43.7754H52.2031C42.0156 43.7754 32.3906 34.0879 23.3281 14.7129H23.1406V16.7754L22.9531 16.9629L23.1406 17.1504V21.2754C23.1406 32.4316 25.9531 40.5566 31.5781 45.6504V46.2129L31.2031 46.5879H31.0156C28.4844 46.5879 25.6719 43.7129 22.5781 37.9629C19.4531 29.3066 17.7656 21.0566 17.5156 13.2129L17.1406 9.83789C17.6406 3.83789 18.9531 0.837891 21.0781 0.837891ZM82.3906 49.9629C83.0156 50.1816 83.3281 50.4941 83.3281 50.9004L81.4531 84.2754H83.5156C90.4219 84.2754 97.4844 80.2754 104.703 72.2754C106.734 69.8066 108.234 65.8691 109.203 60.4629C111.328 53.7129 113.203 50.3379 114.828 50.3379H115.953C116.578 50.6504 116.891 51.1504 116.891 51.8379C113.516 60.0566 111.828 67.1191 111.828 73.0254C111.828 80.0566 114.078 86.8691 118.578 93.4629L118.766 94.2129C117.922 97.2129 116.734 98.7129 115.203 98.7129C114.078 98.7129 112.141 95.5254 109.391 89.1504C107.766 84.8691 106.953 80.4316 106.953 75.8379H106.766C101.766 82.5566 95.2031 87.2441 87.0781 89.9004C84.6719 90.4004 82.6094 90.6504 80.8906 90.6504V90.8379C80.8906 97.0879 80.2031 100.713 78.8281 101.713C77.7656 102.713 76.8906 103.213 76.2031 103.213C75.7031 102.963 75.4531 102.65 75.4531 102.275L78.6406 53.3379C80.1719 51.0879 81.4219 49.9629 82.3906 49.9629ZM158.984 48.6504C160.828 48.6504 161.891 50.4004 162.172 53.9004V55.7754C162.172 61.9004 158.172 71.1504 150.172 83.5254C152.234 88.1191 155.234 91.1816 159.172 92.7129C160.266 93.2129 162.266 93.6504 165.172 94.0254C165.547 94.4941 165.734 94.9316 165.734 95.3379V95.5254C165.734 97.5566 164.609 99.0566 162.359 100.025H161.984C156.484 100.025 151.734 97.3379 147.734 91.9629C146.734 90.4941 146.234 89.5566 146.234 89.1504C140.641 95.4004 135.828 98.5254 131.797 98.5254H131.234C125.953 98.5254 122.203 94.7129 119.984 87.0879C119.609 85.1816 119.422 83.2441 119.422 81.2754V81.0879C119.422 73.4316 121.609 63.8691 125.984 52.4004L126.922 51.6504H127.297L127.672 52.0254V52.5879C125.172 60.7129 123.922 67.7754 123.922 73.7754C123.922 82.7441 125.859 88.6191 129.734 91.4004L131.609 91.7754H132.359C135.734 91.7754 139.734 89.1504 144.359 83.9004C143.734 81.7441 143.422 79.3066 143.422 76.5879V75.6504C143.422 63.2129 147.797 54.4004 156.547 49.2129L158.984 48.6504ZM148.109 73.0254L148.672 78.2754H148.859C153.891 69.9316 156.703 63.0566 157.297 57.6504V56.9004C157.203 55.6504 156.828 55.0254 156.172 55.0254C154.453 55.0254 152.516 57.3379 150.359 61.9629C148.859 65.5879 148.109 69.2754 148.109 73.0254ZM171.172 46.541H171.359C171.984 46.916 172.297 47.3535 172.297 47.8535L170.609 71.4785V71.666H170.797C173.547 67.416 177.422 63.8535 182.422 60.9785C188.797 57.7285 194.734 56.1035 200.234 56.1035H201.172C202.047 56.1035 202.484 56.541 202.484 57.416V57.791C202.016 60.791 200.516 62.291 197.984 62.291C191.797 62.291 185.109 64.666 177.922 69.416C173.797 72.791 171.734 76.4785 171.734 80.4785C171.734 85.5723 174.047 89.2598 178.672 91.541C180.109 91.916 181.609 92.1035 183.172 92.1035H184.672C190.516 92.1035 196.391 89.2285 202.297 83.4785H202.484V83.8535C199.766 89.916 194.266 94.541 185.984 97.7285C184.016 98.2285 182.266 98.4785 180.734 98.4785C176.859 98.4785 173.484 96.916 170.609 93.791L170.797 95.1035L171.172 103.166C171.172 104.354 170.109 105.604 167.984 106.916H167.047C166.047 106.916 165.547 100.354 165.547 87.2285V84.416C165.547 73.0098 166.234 61.2598 167.609 49.166C168.703 47.416 169.891 46.541 171.172 46.541ZM229.766 53.3379H230.516C236.516 53.3379 240.641 56.8379 242.891 63.8379L243.266 66.0879H243.453C246.047 60.5879 248.172 57.8379 249.828 57.8379C250.078 57.8379 250.203 58.0254 250.203 58.4004C246.859 63.4004 244.859 68.9629 244.203 75.0879C243.453 78.3379 243.078 81.1504 243.078 83.5254C243.078 87.3379 244.641 89.9004 247.766 91.2129C251.328 91.8066 253.328 92.3066 253.766 92.7129L254.328 94.4004C254.328 95.9004 253.141 96.7754 250.766 97.0254C245.859 97.0254 242.484 94.5254 240.641 89.5254C240.234 87.4004 239.922 86.3379 239.703 86.3379C235.672 94.4629 229.859 98.5254 222.266 98.5254C215.828 98.5254 211.078 95.3379 208.016 88.9629C207.016 86.6504 206.516 84.2129 206.516 81.6504V80.5254C206.516 71.6816 210.391 64.0566 218.141 57.6504C222.109 54.7754 225.984 53.3379 229.766 53.3379ZM211.578 77.7129V78.8379C211.578 85.5566 214.766 89.7441 221.141 91.4004L224.328 91.7754C231.109 91.7754 235.859 87.3379 238.578 78.4629L239.141 72.8379C239.141 65.5879 236.516 61.0879 231.266 59.3379C229.953 58.9629 228.641 58.7754 227.328 58.7754H226.203C220.078 58.7754 215.391 63.5254 212.141 73.0254C211.766 74.7441 211.578 76.3066 211.578 77.7129ZM281.797 52.4004C282.609 52.4004 283.484 54.7129 284.422 59.3379C288.578 73.1504 293.453 82.9629 299.047 88.7754C301.609 90.8066 304.547 91.9941 307.859 92.3379L308.422 93.4629C307.734 96.8379 306.422 98.5254 304.484 98.5254C296.141 98.5254 289.016 90.7129 283.109 75.0879L280.859 67.9629H280.672C280.672 70.3379 278.297 77.2754 273.547 88.7754C270.578 94.9004 266.766 101.025 262.109 107.15C261.547 107.65 260.984 107.9 260.422 107.9C259.547 107.525 259.109 106.9 259.109 106.025V105.275C259.109 104.088 260.672 101.525 263.797 97.5879C267.547 91.4004 270.609 85.0879 272.984 78.6504C276.109 68.5879 277.672 61.6504 277.672 57.8379C277.859 56.5879 278.234 55.4629 278.797 54.4629C280.141 53.0879 281.141 52.4004 281.797 52.4004ZM330.641 46.7754C331.266 46.9629 331.578 47.4004 331.578 48.0879C331.578 48.9629 329.641 51.5254 325.766 55.7754C318.859 64.4941 315.172 71.0566 314.703 75.4629V75.6504C319.641 71.2754 324.953 69.0879 330.641 69.0879H332.516C339.547 69.0879 344.234 71.9629 346.578 77.7129L347.141 81.4629C347.141 86.7441 344.453 91.4316 339.078 95.5254C335.766 97.5254 332.203 98.5254 328.391 98.5254H326.891C319.766 98.5254 314.391 95.5879 310.766 89.7129C309.641 87.5566 309.078 85.3066 309.078 82.9629V81.4629C309.078 73.3066 313.641 63.6816 322.766 52.5879C326.516 48.7129 329.141 46.7754 330.641 46.7754ZM314.516 83.3379C314.516 88.1191 318.578 91.1816 326.703 92.5254L328.953 92.7129C336.047 92.7129 340.734 90.7754 343.016 86.9004C343.516 85.4004 343.766 84.1504 343.766 83.1504C343.766 77.7754 339.016 75.0879 329.516 75.0879C322.203 75.0879 317.391 76.8379 315.078 80.3379C314.703 81.3691 314.516 82.3691 314.516 83.3379ZM354.828 49.9629C355.453 50.1816 355.766 50.4941 355.766 50.9004L353.891 84.2754H355.953C362.859 84.2754 369.922 80.2754 377.141 72.2754C379.172 69.8066 380.672 65.8691 381.641 60.4629C383.766 53.7129 385.641 50.3379 387.266 50.3379H388.391C389.016 50.6504 389.328 51.1504 389.328 51.8379C385.953 60.0566 384.266 67.1191 384.266 73.0254C384.266 80.0566 386.516 86.8691 391.016 93.4629L391.203 94.2129C390.359 97.2129 389.172 98.7129 387.641 98.7129C386.516 98.7129 384.578 95.5254 381.828 89.1504C380.203 84.8691 379.391 80.4316 379.391 75.8379H379.203C374.203 82.5566 367.641 87.2441 359.516 89.9004C357.109 90.4004 355.047 90.6504 353.328 90.6504V90.8379C353.328 97.0879 352.641 100.713 351.266 101.713C350.203 102.713 349.328 103.213 348.641 103.213C348.141 102.963 347.891 102.65 347.891 102.275L351.078 53.3379C352.609 51.0879 353.859 49.9629 354.828 49.9629ZM410.797 43.5879H413.047C421.047 43.5879 427.172 46.2754 431.422 51.6504C433.547 55.2129 434.609 59.2754 434.609 63.8379C434.609 66.7754 433.672 73.0254 431.797 82.5879L431.609 85.0254C432.047 89.9629 433.234 92.5254 435.172 92.7129H435.359L437.797 91.7754H438.172C438.797 92.0566 439.109 92.6816 439.109 93.6504C438.516 96.6504 436.703 98.1504 433.672 98.1504H433.109C430.391 98.1504 428.578 95.9629 427.672 91.5879L427.297 87.6504C427.672 83.7441 428.609 77.4941 430.109 68.9004V65.5254C430.109 57.9629 426.047 52.9004 417.922 50.3379C415.328 49.7129 412.703 49.4004 410.047 49.4004C405.672 49.4004 403.484 50.0254 403.484 51.2754C401.359 56.7754 400.297 60.4629 400.297 62.3379C405.641 68.7441 409.641 73.7441 412.297 77.3379C414.047 80.5254 414.922 83.6504 414.922 86.7129C414.922 91.3379 412.922 94.9629 408.922 97.5879C407.359 98.2129 406.047 98.5254 404.984 98.5254C399.766 98.5254 396.391 94.5254 394.859 86.5254C394.359 83.5254 394.047 80.4004 393.922 77.1504C394.172 71.7441 394.609 67.7441 395.234 65.1504C392.984 62.0254 391.859 59.2129 391.859 56.7129C391.859 51.2754 395.797 47.2129 403.672 44.5254C406.266 43.9004 408.641 43.5879 410.797 43.5879ZM396.359 54.8379L397.109 57.2754H397.297C397.297 56.7441 397.922 54.8691 399.172 51.6504C397.297 52.5566 396.359 53.6191 396.359 54.8379ZM399.172 70.5879L398.984 74.3379V78.2754C398.984 88.0254 401.547 92.9004 406.672 92.9004H407.609C409.359 92.5566 410.234 91.2441 410.234 88.9629V88.7754C410.234 84.6191 407.422 79.5566 401.797 73.5879L399.172 70.5879ZM442.859 33.5566C451.609 41.6816 457.984 48.3691 461.984 53.6191C468.328 62.4629 473.828 71.5879 478.484 80.9941L478.859 82.3066H479.047V81.3691C479.047 71.0254 480.547 62.4629 483.547 55.6816C484.141 55.0879 484.828 54.7129 485.609 54.5566C486.359 54.5566 486.734 54.9941 486.734 55.8691V56.0566C484.234 63.4941 482.984 71.6191 482.984 80.4316L483.734 95.8066C483.734 96.7129 482.922 97.7129 481.297 98.8066L480.547 98.9941C480.078 98.4629 478.891 95.3379 476.984 89.6191C476.109 87.8066 475.672 86.6816 475.672 86.2441C472.953 91.2441 468.078 94.9316 461.047 97.3066C458.797 98.0566 456.484 98.4316 454.109 98.4316C447.547 98.4316 443.172 95.7441 440.984 90.3691C440.234 88.2441 439.859 85.7441 439.859 82.8691C439.859 75.9316 442.172 66.0566 446.797 53.2441L448.109 51.9316H448.484L448.859 52.3066L446.609 61.1191C445.609 65.6504 445.109 70.0879 445.109 74.4316C445.109 82.3379 446.609 87.4004 449.609 89.6191C451.484 90.6191 453.484 91.1191 455.609 91.1191H456.734C463.422 91.1191 468.922 88.3066 473.234 82.6816L473.609 81.7441C467.297 67.5254 460.547 55.7754 453.359 46.4941C451.422 43.8691 447.797 39.9316 442.484 34.6816L442.297 33.7441L442.484 33.5566H442.859ZM144.641 163.4V163.588L144.828 163.4C148.766 163.4 151.578 165.775 153.266 170.525L153.453 172.4C153.453 174.338 152.766 176.025 151.391 177.463H151.203V177.275C151.203 173.838 149.266 171.463 145.391 170.15L143.703 169.963H142.578C136.953 169.963 132.391 173.713 128.891 181.213C128.016 183.713 127.578 186.088 127.578 188.338C127.578 193.838 129.766 198.025 134.141 200.9C136.328 202.15 138.891 202.775 141.828 202.775C149.359 202.775 154.609 200.463 157.578 195.838H157.766L158.141 196.213C158.141 200.025 155.453 203.65 150.078 207.088C146.359 208.713 143.047 209.525 140.141 209.525C133.328 209.525 128.266 205.65 124.953 197.9C123.953 195.182 123.453 192.307 123.453 189.275C123.453 179.588 127.578 171.838 135.828 166.025C139.578 164.275 142.516 163.4 144.641 163.4ZM167.422 152.525C168.922 152.525 170.797 155.463 173.047 161.338C173.797 163.963 174.172 166.65 174.172 169.4V172.775H174.359C174.828 171.369 176.516 169.307 179.422 166.588C182.516 164.088 185.453 162.838 188.234 162.838C191.703 162.838 194.766 165.088 197.422 169.588L197.797 171.463H197.984C200.172 166.463 203.172 163.963 206.984 163.963C211.922 163.963 215.234 165.963 216.922 169.963C217.922 172.307 218.422 175.494 218.422 179.525V188.15C218.422 196.932 220.359 201.807 224.234 202.775C226.859 203.025 228.172 203.65 228.172 204.65V205.213C227.516 208.088 226.328 209.525 224.609 209.525C220.984 209.525 218.047 207.588 215.797 203.713C214.422 200.432 213.734 196.869 213.734 193.025L214.672 180.838C214.672 174.588 212.547 171.463 208.297 171.463H207.734C204.047 171.463 201.797 173.4 200.984 177.275C199.078 197.525 197.828 207.65 197.234 207.65C196.203 208.9 195.141 209.525 194.047 209.525C193.422 209.213 193.109 208.713 193.109 208.025C194.234 198.713 194.797 191.9 194.797 187.588C194.797 178.744 193.297 173.057 190.297 170.525C189.203 170.025 188.078 169.775 186.922 169.775H185.984C178.234 169.775 173.109 178.4 170.609 195.65C169.391 203.9 168.516 208.025 167.984 208.025C166.922 209.025 166.047 209.525 165.359 209.525C164.734 209.525 164.297 209.025 164.047 208.025L169.109 175.775L169.297 172.4C169.297 166.838 167.547 161.9 164.047 157.588V156.838C164.047 154.963 165.172 153.525 167.422 152.525ZM268.203 159.65C270.047 159.65 271.109 161.4 271.391 164.9V166.775C271.391 172.9 267.391 182.15 259.391 194.525C261.453 199.119 264.453 202.182 268.391 203.713C269.484 204.213 271.484 204.65 274.391 205.025C274.766 205.494 274.953 205.932 274.953 206.338V206.525C274.953 208.557 273.828 210.057 271.578 211.025H271.203C265.703 211.025 260.953 208.338 256.953 202.963C255.953 201.494 255.453 200.557 255.453 200.15C249.859 206.4 245.047 209.525 241.016 209.525H240.453C235.172 209.525 231.422 205.713 229.203 198.088C228.828 196.182 228.641 194.244 228.641 192.275V192.088C228.641 184.432 230.828 174.869 235.203 163.4L236.141 162.65H236.516L236.891 163.025V163.588C234.391 171.713 233.141 178.775 233.141 184.775C233.141 193.744 235.078 199.619 238.953 202.4L240.828 202.775H241.578C244.953 202.775 248.953 200.15 253.578 194.9C252.953 192.744 252.641 190.307 252.641 187.588V186.65C252.641 174.213 257.016 165.4 265.766 160.213L268.203 159.65ZM257.328 184.025L257.891 189.275H258.078C263.109 180.932 265.922 174.057 266.516 168.65V167.9C266.422 166.65 266.047 166.025 265.391 166.025C263.672 166.025 261.734 168.338 259.578 172.963C258.078 176.588 257.328 180.275 257.328 184.025ZM297.453 163.4C298.266 163.4 299.141 165.713 300.078 170.338C304.234 184.15 309.109 193.963 314.703 199.775C317.266 201.807 320.203 202.994 323.516 203.338L324.078 204.463C323.391 207.838 322.078 209.525 320.141 209.525C311.797 209.525 304.672 201.713 298.766 186.088L296.516 178.963H296.328C296.328 181.338 293.953 188.275 289.203 199.775C286.234 205.9 282.422 212.025 277.766 218.15C277.203 218.65 276.641 218.9 276.078 218.9C275.203 218.525 274.766 217.9 274.766 217.025V216.275C274.766 215.088 276.328 212.525 279.453 208.588C283.203 202.4 286.266 196.088 288.641 189.65C291.766 179.588 293.328 172.65 293.328 168.838C293.516 167.588 293.891 166.463 294.453 165.463C295.797 164.088 296.797 163.4 297.453 163.4ZM346.297 157.775C346.922 157.963 347.234 158.4 347.234 159.088C347.234 159.963 345.297 162.525 341.422 166.775C334.516 175.494 330.828 182.057 330.359 186.463V186.65C335.297 182.275 340.609 180.088 346.297 180.088H348.172C355.203 180.088 359.891 182.963 362.234 188.713L362.797 192.463C362.797 197.744 360.109 202.432 354.734 206.525C351.422 208.525 347.859 209.525 344.047 209.525H342.547C335.422 209.525 330.047 206.588 326.422 200.713C325.297 198.557 324.734 196.307 324.734 193.963V192.463C324.734 184.307 329.297 174.682 338.422 163.588C342.172 159.713 344.797 157.775 346.297 157.775ZM330.172 194.338C330.172 199.119 334.234 202.182 342.359 203.525L344.609 203.713C351.703 203.713 356.391 201.775 358.672 197.9C359.172 196.4 359.422 195.15 359.422 194.15C359.422 188.775 354.672 186.088 345.172 186.088C337.859 186.088 333.047 187.838 330.734 191.338C330.359 192.369 330.172 193.369 330.172 194.338Z" fill="white"/>
</svg>
