<svg width="360" height="348" viewBox="0 0 360 348" fill="none" xmlns="http://www.w3.org/2000/svg">
<path d="M52.035 0.6875H54.035C58.6183 0.6875 61.2017 2.1875 61.785 5.1875C60.7433 9.35417 58.91 11.4375 56.285 11.4375C54.285 10.2708 52.4517 9.6875 50.785 9.6875H49.035C43.7017 9.6875 37.785 13.4375 31.285 20.9375C25.1183 29.8958 22.035 38.3125 22.035 46.1875V46.6875C22.035 52.0625 24.035 55.6458 28.035 57.4375C29.41 58.1042 30.9933 58.4375 32.785 58.4375C40.16 58.4375 45.2433 51.6042 48.035 37.9375L48.285 33.1875V29.6875L48.035 26.1875C49.7017 22.0208 51.4517 19.9375 53.285 19.9375H53.785C55.2433 21.6458 57.91 27.5625 61.785 37.6875C67.6183 52.7708 70.535 66.1042 70.535 77.6875V78.6875C70.535 98.2292 62.3683 112.812 46.035 122.438C40.285 124.771 35.1183 125.938 30.535 125.938C20.41 125.938 11.91 121.354 5.035 112.188C2.035 106.688 0.535004 101.104 0.535004 95.4375C0.535004 85.2292 5.285 78.1458 14.785 74.1875H15.035V74.4375C9.74334 78.8958 7.07667 81.6458 7.035 82.6875C5.86834 85.0208 5.285 87.7708 5.285 90.9375V91.6875C5.285 103.938 11.4517 112.021 23.785 115.938C26.5767 116.938 29.41 117.438 32.285 117.438H34.535C44.4933 117.438 52.8267 111.854 59.535 100.688C62.035 95.7292 63.285 89.6458 63.285 82.4375V81.4375C63.285 69.8542 60.285 56.4375 54.285 41.1875H54.035C51.8683 50.2708 48.035 57.2708 42.535 62.1875C37.4517 65.8542 32.7017 67.6875 28.285 67.6875C20.285 67.6875 16.285 61.9375 16.285 50.4375C16.285 37.8958 21.535 25.3958 32.035 12.9375C39.9933 4.77083 46.66 0.6875 52.035 0.6875ZM106.403 4.4375C119.778 4.4375 128.694 11.6875 133.153 26.1875C134.486 31.0208 135.153 35.2708 135.153 38.9375C135.153 49.1042 130.569 57.4375 121.403 63.9375C115.694 66.6042 110.278 67.9375 105.153 67.9375C100.694 67.9375 95.7775 67.0208 90.4025 65.1875V65.4375C88.5692 94.2292 86.7358 115.562 84.9025 129.438C83.4025 135.979 81.7358 140.896 79.9025 144.188C76.0275 150.354 71.6108 153.438 66.6525 153.438H64.6525L63.9025 152.688V151.938C63.9025 151.646 65.3192 150.729 68.1525 149.188C72.0275 145.354 74.6108 140.438 75.9025 134.438C78.4025 124.354 81.6525 85.3542 85.6525 17.4375C85.6525 14.3542 86.6525 12.2708 88.6525 11.1875C93.0692 6.6875 98.9858 4.4375 106.403 4.4375ZM90.1525 54.6875L89.9025 54.9375C93.5275 56.9375 97.9442 57.9375 103.153 57.9375H104.653C115.819 57.9375 123.403 53.1875 127.403 43.6875L128.153 38.1875C128.153 29.2292 123.486 21.9792 114.153 16.4375C110.903 15.1042 107.653 14.4375 104.403 14.4375H104.153C96.4858 14.8542 92.6525 16.0208 92.6525 17.9375C90.9858 33.9792 90.1525 46.2292 90.1525 54.6875ZM181.59 8.5625C183.965 9.5625 185.548 18.3125 186.34 34.8125C189.507 64.5208 191.09 90.2708 191.09 112.062L190.84 117.312H190.59L190.84 117.562C190.84 121.812 189.173 127.396 185.84 134.312C181.923 140.146 177.423 143.062 172.34 143.062H171.34C163.132 143.062 154.298 138.896 144.84 130.562C138.34 123.854 135.09 117.188 135.09 110.562V109.062C135.09 97.6458 144.507 86.6458 163.34 76.0625L166.09 75.3125L166.34 75.5625V75.8125C165.923 76.4375 161.84 79.7708 154.09 85.8125C145.423 93.3125 141.09 99.9792 141.09 105.812C141.09 112.062 144.84 118.479 152.34 125.062C161.548 131.729 168.632 135.062 173.59 135.062H175.09C178.715 135.062 181.215 132.979 182.59 128.812C183.757 124.396 184.34 119.146 184.34 113.062C184.34 95.0625 183.257 74.3125 181.09 50.8125C172.923 62.1458 165.673 67.8125 159.34 67.8125L159.09 68.0625H158.84V67.8125L158.09 68.0625C151.215 68.0625 146.548 64.6458 144.09 57.8125L143.34 52.0625C143.34 43.3125 147.59 30.8125 156.09 14.5625L158.34 13.3125C159.84 13.6458 160.59 14.4792 160.59 15.8125V16.5625C160.59 17.1875 158.423 22.1042 154.09 31.3125C151.09 38.7292 149.59 44.6458 149.59 49.0625V49.8125C149.59 54.0625 151.423 56.9792 155.09 58.5625L159.84 59.3125C166.465 59.3125 172.215 55.1458 177.09 46.8125C178.423 42.4792 179.09 37.8958 179.09 33.0625V31.8125C179.09 25.9375 178.173 20.1042 176.34 14.3125C177.465 10.4792 179.215 8.5625 181.59 8.5625ZM215.152 0.6875H216.402C221.527 0.6875 224.902 3.70833 226.527 9.75V11.4375C226.527 17.3542 223.09 23.8958 216.215 31.0625C209.048 39.1458 205.465 45.3333 205.465 49.625V51.125C205.465 55.5 208.069 58.5833 213.277 60.375L216.215 60.625H217.715C223.215 60.625 229.319 58.1667 236.027 53.25C236.652 52.2917 237.507 51.7292 238.59 51.5625C239.34 51.5625 239.757 52.25 239.84 53.625V54.5C239.84 59.625 233.236 63.9167 220.027 67.375L213.715 68C206.59 68 202.007 65.1875 199.965 59.5625C199.548 58.0625 199.34 56.7917 199.34 55.75V54.5C199.34 46.875 203.902 38.1458 213.027 28.3125C217.527 22.4375 219.777 18.0833 219.777 15.25V14.4375C219.111 10.8958 217.09 9.125 213.715 9.125H212.027C209.444 9.125 206.132 10.4583 202.09 13.125H200.84C200.423 13.125 200.069 12.5 199.777 11.25V10.8125C199.777 7.60417 202.59 4.875 208.215 2.625C210.882 1.33333 213.194 0.6875 215.152 0.6875ZM293.965 1.5C296.423 1.5 297.84 3.83333 298.215 8.5V11C298.215 19.1667 292.882 31.5 282.215 48C284.965 54.125 288.965 58.2083 294.215 60.25C295.673 60.9167 298.34 61.5 302.215 62C302.715 62.625 302.965 63.2083 302.965 63.75V64C302.965 66.7083 301.465 68.7083 298.465 70H297.965C290.632 70 284.298 66.4167 278.965 59.25C277.632 57.2917 276.965 56.0417 276.965 55.5C269.507 63.8333 263.09 68 257.715 68H256.965C249.923 68 244.923 62.9167 241.965 52.75C241.465 50.2083 241.215 47.625 241.215 45V44.75C241.215 34.5417 244.132 21.7917 249.965 6.5L251.215 5.5H251.715L252.215 6V6.75C248.882 17.5833 247.215 27 247.215 35C247.215 46.9583 249.798 54.7917 254.965 58.5L257.465 59H258.465C262.965 59 268.298 55.5 274.465 48.5C273.632 45.625 273.215 42.375 273.215 38.75V37.5C273.215 20.9167 279.048 9.16667 290.715 2.25L293.965 1.5ZM279.465 34L280.215 41H280.465C287.173 29.875 290.923 20.7083 291.715 13.5V12.5C291.59 10.8333 291.09 10 290.215 10C287.923 10 285.34 13.0833 282.465 19.25C280.465 24.0833 279.465 29 279.465 34ZM339.965 0.5C344.715 0.5 347.965 2.83333 349.715 7.5L350.215 12.5C350.215 25.25 337.132 35.8333 310.965 44.25C314.215 54.75 321.882 60 333.965 60C343.34 60 351.84 55.9167 359.465 47.75L359.715 48V48.25C350.382 61.4167 339.632 68 327.465 68C319.465 68 312.632 64.25 306.965 56.75C304.132 52.5 302.715 47.4167 302.715 41.5C302.715 29.7917 307.715 19.125 317.715 9.5C326.382 3.5 333.798 0.5 339.965 0.5ZM310.215 38.75C332.382 31.7083 343.465 24.0417 343.465 15.75C343.465 11.2083 341.298 8.625 336.965 8H336.215C330.09 8 323.09 12.3333 315.215 21C311.882 27.25 310.215 33.1667 310.215 38.75ZM16.2031 226.938C17.7031 226.938 19.5781 229.938 21.8281 235.938C22.5781 238.406 22.9531 241.281 22.9531 244.562V247C27.0469 240.25 32.1719 236.875 38.3281 236.875C44.3281 236.875 47.3281 241.938 47.3281 252.062V257.875C47.3281 268.125 48.7656 273.938 51.6406 275.312C53.1406 276.312 54.7656 276.812 56.5156 276.812C57.0156 277.406 57.2656 277.906 57.2656 278.312C56.4219 281.438 55.2344 283 53.7031 283C50.1406 283 47.2031 281.125 44.8906 277.375C43.3906 274.031 42.6406 270.344 42.6406 266.312L43.0156 256.375V255.062C43.0156 249.5 41.8281 245.875 39.4531 244.188C38.3906 243.562 37.0781 243.25 35.5156 243.25C28.0469 243.25 22.7344 251.75 19.5781 268.75C18.2344 277.875 17.2969 282.438 16.7656 282.438C15.7344 283.438 14.7969 283.938 13.9531 283.938C13.3594 283.938 12.9844 283.375 12.8281 282.25L17.8906 250V245.5C17.8906 240.812 16.2031 236.312 12.8281 232V230.875C13.7031 228.25 14.8281 226.938 16.2031 226.938ZM78.5 235.328C88.5312 235.328 95.2188 240.766 98.5625 251.641C99.5625 255.266 100.062 258.453 100.062 261.203C100.062 268.828 96.625 275.078 89.75 279.953C85.4688 281.953 81.4062 282.953 77.5625 282.953C74.2188 282.953 70.5312 282.266 66.5 280.891V281.078C65.125 302.672 63.75 318.672 62.375 329.078C61.25 333.984 60 337.672 58.625 340.141C55.7188 344.766 52.4062 347.078 48.6875 347.078H47.1875L46.625 346.516V345.953C46.625 345.734 47.6875 345.047 49.8125 343.891C52.7188 341.016 54.6562 337.328 55.625 332.828C57.5 325.266 59.9375 296.016 62.9375 245.078C62.9375 242.766 63.6875 241.203 65.1875 240.391C68.5 237.016 72.9375 235.328 78.5 235.328ZM66.3125 273.016L66.125 273.203C68.8438 274.703 72.1562 275.453 76.0625 275.453H77.1875C85.5625 275.453 91.25 271.891 94.25 264.766L94.8125 260.641C94.8125 253.922 91.3125 248.484 84.3125 244.328C81.875 243.328 79.4375 242.828 77 242.828H76.8125C71.0625 243.141 68.1875 244.016 68.1875 245.453C66.9375 257.484 66.3125 266.672 66.3125 273.016ZM125.984 232.938H127.109C135.047 232.938 140.734 238.062 144.172 248.312C144.922 251.156 145.297 253.906 145.297 256.562V256.75C145.297 263.562 142.797 270.188 137.797 276.625C133.797 280.875 129.422 283 124.672 283C117.234 283 111.672 278.688 107.984 270.062C106.609 266.406 105.922 262.844 105.922 259.375C105.922 251.75 108.859 244.562 114.734 237.812C118.422 234.562 122.172 232.938 125.984 232.938ZM111.172 256.562V257.125C111.172 264.906 114.109 270.844 119.984 274.938C122.016 275.812 123.828 276.25 125.422 276.25C131.984 276.25 136.859 271.625 140.047 262.375L140.422 258.812V257.875C140.422 251.5 137.859 246.062 132.734 241.562C130.484 240.312 128.484 239.688 126.734 239.688H125.234C120.359 239.688 116.297 242.75 113.047 248.875C111.797 251.5 111.172 254.062 111.172 256.562ZM179.234 232.375C182.797 232.375 185.234 234.125 186.547 237.625L186.922 241.375C186.922 250.938 177.109 258.875 157.484 265.188C159.922 273.062 165.672 277 174.734 277C181.766 277 188.141 273.938 193.859 267.812L194.047 268V268.188C187.047 278.062 178.984 283 169.859 283C163.859 283 158.734 280.188 154.484 274.562C152.359 271.375 151.297 267.562 151.297 263.125C151.297 254.344 155.047 246.344 162.547 239.125C169.047 234.625 174.609 232.375 179.234 232.375ZM156.922 261.062C173.547 255.781 181.859 250.031 181.859 243.812C181.859 240.406 180.234 238.469 176.984 238H176.422C171.828 238 166.578 241.25 160.672 247.75C158.172 252.438 156.922 256.875 156.922 261.062ZM200.234 231.016H200.422C201.047 231.391 201.359 231.828 201.359 232.328L199.672 255.953V256.141H199.859C202.609 251.891 206.484 248.328 211.484 245.453C217.859 242.203 223.797 240.578 229.297 240.578H230.234C231.109 240.578 231.547 241.016 231.547 241.891V242.266C231.078 245.266 229.578 246.766 227.047 246.766C220.859 246.766 214.172 249.141 206.984 253.891C202.859 257.266 200.797 260.953 200.797 264.953C200.797 270.047 203.109 273.734 207.734 276.016C209.172 276.391 210.672 276.578 212.234 276.578H213.734C219.578 276.578 225.453 273.703 231.359 267.953H231.547V268.328C228.828 274.391 223.328 279.016 215.047 282.203C213.078 282.703 211.328 282.953 209.797 282.953C205.922 282.953 202.547 281.391 199.672 278.266L199.859 279.578L200.234 287.641C200.234 288.828 199.172 290.078 197.047 291.391H196.109C195.109 291.391 194.609 284.828 194.609 271.703V268.891C194.609 257.484 195.297 245.734 196.672 233.641C197.766 231.891 198.953 231.016 200.234 231.016ZM238.953 226C240.453 226 242.328 228.938 244.578 234.812C245.328 237.438 245.703 240.125 245.703 242.875V246.25H245.891C246.359 244.844 248.047 242.781 250.953 240.062C254.047 237.562 256.984 236.312 259.766 236.312C263.234 236.312 266.297 238.562 268.953 243.062L269.328 244.938H269.516C271.703 239.938 274.703 237.438 278.516 237.438C283.453 237.438 286.766 239.438 288.453 243.438C289.453 245.781 289.953 248.969 289.953 253V261.625C289.953 270.406 291.891 275.281 295.766 276.25C298.391 276.5 299.703 277.125 299.703 278.125V278.688C299.047 281.562 297.859 283 296.141 283C292.516 283 289.578 281.062 287.328 277.188C285.953 273.906 285.266 270.344 285.266 266.5L286.203 254.312C286.203 248.062 284.078 244.938 279.828 244.938H279.266C275.578 244.938 273.328 246.875 272.516 250.75C270.609 271 269.359 281.125 268.766 281.125C267.734 282.375 266.672 283 265.578 283C264.953 282.688 264.641 282.188 264.641 281.5C265.766 272.188 266.328 265.375 266.328 261.062C266.328 252.219 264.828 246.531 261.828 244C260.734 243.5 259.609 243.25 258.453 243.25H257.516C249.766 243.25 244.641 251.875 242.141 269.125C240.922 277.375 240.047 281.5 239.516 281.5C238.453 282.5 237.578 283 236.891 283C236.266 283 235.828 282.5 235.578 281.5L240.641 249.25L240.828 245.875C240.828 240.312 239.078 235.375 235.578 231.062V230.312C235.578 228.438 236.703 227 238.953 226ZM319.109 228.062H321.359C329.359 228.062 335.484 230.75 339.734 236.125C341.859 239.688 342.922 243.75 342.922 248.312C342.922 251.25 341.984 257.5 340.109 267.062L339.922 269.5C340.359 274.438 341.547 277 343.484 277.188H343.672L346.109 276.25H346.484C347.109 276.531 347.422 277.156 347.422 278.125C346.828 281.125 345.016 282.625 341.984 282.625H341.422C338.703 282.625 336.891 280.438 335.984 276.062L335.609 272.125C335.984 268.219 336.922 261.969 338.422 253.375V250C338.422 242.438 334.359 237.375 326.234 234.812C323.641 234.188 321.016 233.875 318.359 233.875C313.984 233.875 311.797 234.5 311.797 235.75C309.672 241.25 308.609 244.938 308.609 246.812C313.953 253.219 317.953 258.219 320.609 261.812C322.359 265 323.234 268.125 323.234 271.188C323.234 275.812 321.234 279.438 317.234 282.062C315.672 282.688 314.359 283 313.297 283C308.078 283 304.703 279 303.172 271C302.672 268 302.359 264.875 302.234 261.625C302.484 256.219 302.922 252.219 303.547 249.625C301.297 246.5 300.172 243.688 300.172 241.188C300.172 235.75 304.109 231.688 311.984 229C314.578 228.375 316.953 228.062 319.109 228.062ZM304.672 239.312L305.422 241.75H305.609C305.609 241.219 306.234 239.344 307.484 236.125C305.609 237.031 304.672 238.094 304.672 239.312ZM307.484 255.062L307.297 258.812V262.75C307.297 272.5 309.859 277.375 314.984 277.375H315.922C317.672 277.031 318.547 275.719 318.547 273.438V273.25C318.547 269.094 315.734 264.031 310.109 258.062L307.484 255.062Z" fill="black"/>
</svg>
